<?xml version="1.0" encoding="UTF-8"?><svg id="Layer_1" xmlns="http://www.w3.org/2000/svg" viewBox="0 0 897.44 267.61"><defs><style>.cls-1{fill:#262626;}.cls-2{fill:#ff5a5a;}</style></defs><path class="cls-1" d="M107.22,223.46h-.16c-3.53,0-6.95,1.65-10.19,4.92l-.13.15c-5.16,5.91-11.74,8.78-20.12,8.78-14.29,0-25.25-4.43-33.52-13.52-8.48-9.32-12.61-19.74-12.61-31.87s4.16-21.61,12.71-30.48c8.47-8.78,19.35-13.06,33.24-13.06,6.84,0,12.2,1.79,16.26,5.31,2.42,2.42,5.83,3.65,9.07,3.7,3.97-.04,7.85-1.82,10.93-5.01,3.09-3.21,4.71-7.09,4.71-11.21,0-3.8-1.54-7.15-4.56-9.81-10.95-8.81-23.09-13.28-36.05-13.28-20.53,0-38.6,7.04-53.71,20.93C7.76,153.07,0,170.94,0,192.11c0,13.1,2.99,25.43,8.89,36.65,6,11.34,15.1,20.75,27.06,27.97,11.98,7.22,25.97,10.89,41.59,10.89,16.71,0,30.73-6.34,41.48-18.67,2.46-2.43,3.75-5.49,3.75-8.86,0-3.9-1.63-7.62-4.83-11.04-3.41-3.65-7.02-5.53-10.72-5.59Z"/><path class="cls-1" d="M235.85,173.14c-1.26-6.71-7.32-10.71-14.63-9.84-6.32.79-12.47,5.63-11.99,13.37,1,16.03-2.12,29.28-9.28,39.36-6.94,9.8-19.05,15.22-30.26,13.52-12.92-1.98-18.17-13.85-18.73-23.42-.78-13.29,4.55-27.23,14.27-37.31,11.45-11.87,28.49-17.77,44.49-15.38,7.83,1.15,14.39-2.67,16.27-9.53,1.01-3.63.24-8.01-1.98-11.43-1.92-2.94-4.69-4.82-7.83-5.29-24.06-3.59-47.21,2.73-65.1,17.84-16.38,13.83-26.55,34.88-27.21,56.3-.74,23.93,11.65,44.43,31.59,52.2,5.74,2.24,11.93,3.32,18.22,3.32,13.91,0,28.3-5.29,39.31-15.07,6.82-6.05,12.27-13.78,16.27-23.04,2.54,2.86,5.05,5.32,7.6,7.44,5.9,4.94,13.86,4.87,18.92-.19,2.63-2.63,4.09-6.57,3.92-10.55-.16-3.56-1.63-6.68-4.13-8.76-10.55-8.8-17.18-20.09-19.71-33.56Z"/><path class="cls-1" d="M889.59,157.95l-.12-.05c-4.12-1.65-8.25-1.53-11.59.28-3.63,1.88-6.12,5.13-7.41,9.61-2.23,7.39-6.76,16.43-13.46,26.86-6.73,10.49-13.57,19.12-20.24,25.61-11.68,10.57-22.02,15.94-30.77,15.94s-15.63-8.52-20.06-25.35c-1.92-7.08-2.9-12.28-2.9-15.45,0-.47.05-.74,0-.76.49-.47,1.21-1.09,2.14-1.85,4.72-3.76,11.28-9.62,19.48-17.4,8.25-7.83,14.68-14.32,19.13-19.29,6.18-6.82,12.18-14.72,17.84-23.46,8.82-13.62,13.29-26.42,13.29-38.03,0-6.22-1.37-12.4-4.11-18.43-6.76-13.85-17.96-20.87-33.3-20.87-7.01,0-14.03,1.82-20.88,5.41-8.64,4.54-16.19,11.47-22.47,20.62-13.78,20.55-20.76,49.2-20.76,85.21l.06,1.5c-2.26,7.35-6.76,16.3-13.39,26.62-6.73,10.49-13.57,19.12-20.24,25.61-11.68,10.57-22.03,15.94-30.77,15.94s-15.63-8.52-20.06-25.35c-1.92-7.08-2.9-12.28-2.9-15.45,0-.47.05-.74,0-.76.49-.47,1.21-1.09,2.14-1.85,4.72-3.76,11.28-9.62,19.48-17.4,8.25-7.83,14.68-14.32,19.13-19.29,6.18-6.82,12.18-14.72,17.84-23.46,8.82-13.62,13.29-26.42,13.29-38.03,0-6.22-1.37-12.4-4.11-18.43-6.76-13.85-17.96-20.87-33.3-20.87-7.01,0-14.03,1.82-20.88,5.41-8.64,4.54-16.19,11.47-22.47,20.62-13.78,20.55-20.76,49.2-20.76,85.19.04,5.76.25,11.42.61,16.85-18.54,24.28-36.59,39.88-53.67,46.34-3.59,1.36-6.87,2.34-10.03,3l-2.1.41c-1.32.13-2.63.25-3.96.28-.88-.03-1.66-.05-2.87-.13l-1.4-.1c-6.54-2.36-11.71-5.79-15.83-10.55,1.42.27,2.8.47,4.19.61,20.39,2.07,39.96-10.92,47.81-31.67,7.23-19.14,1.27-42.44-14.18-55.39-16.82-14.1-39.41-13.98-56.21.34-8.68,7.39-14.9,17.53-18.15,29.52-4.35-1.66-9.28-.55-13.11,3.17-4.79,4.64-6.66,12.72-1,19.19,4.51,5.16,8.76,9.59,12.95,13.51,2.17,12.3,6.64,23.76,12.94,33.21,12.94,19.45,33.37,28.25,56.12,24.1,21.92-3.99,42.93-17.2,64.08-40.33,5.59,20.26,15.09,33.97,28.42,40.86,17.9,7.76,37.59,3.82,58.79-11.95,9.77-7.74,19.36-18.16,28.48-30.97.19-.27.39-.54.57-.81,5.51,21.89,15.21,36.56,29.07,43.72,5.95,2.58,12.16,3.89,18.46,3.89,12.64,0,26.17-5.31,40.33-15.84,9.76-7.74,19.36-18.16,28.49-30.98,9.12-12.81,15.93-25.45,20.2-37.51,1.29-3.39,1.94-6.48,1.94-9.17,0-5.66-2.71-9.87-7.84-12.17ZM536.24,176.22c2.28-10.69,8.89-22.2,18.54-23.8,9.57-1.59,18.22,7.75,20,17.11,1.24,6.62-.52,14.05-4.59,19.38-2.39,3.12-6.65,6.96-13.33,7.5-7.01.56-14.01-1.89-21.5-7.49-.2-4.77.08-8.93.88-12.7ZM664.08,153.58c2.46-29.56,9.36-50.65,20.38-62.57,6.65-6.4,9.92-7.66,11.28-7.84,2.87-.39,4.59-.6,5.19-.61,3.34,0,5.76,1.39,7.5,4.17,1.25,2.41,1.86,5.04,1.86,8.04,0,10.95-8.39,25.88-24.96,44.37-3.48,3.89-8.83,9.19-15.91,15.74-2.39,2.2-4.23,3.88-5.65,5.15l.3-6.45ZM780.99,153.58c2.46-29.56,9.36-50.65,20.38-62.57,6.65-6.4,9.92-7.66,11.28-7.84,2.87-.39,4.59-.6,5.19-.61,3.34,0,5.76,1.39,7.5,4.17,1.24,2.39,1.87,5.1,1.87,8.04,0,10.95-8.4,25.88-24.97,44.37-3.48,3.89-8.83,9.19-15.91,15.74-2.39,2.2-4.23,3.88-5.65,5.15l.3-6.45Z"/><path class="cls-1" d="M478.6,164.02h-.34c-5.06-.01-9.42,2.95-13.02,8.88-2.04,3.69-4.86,10.27-8.62,20.09-14.17,36.39-21.96,38.24-22.82,38.38-.35-.27-1.41-1.98-2.16-6.56-.8-4.52-1.47-12.46-1.97-23.51-.16-10.31-1.68-20.48-4.48-30.25-3.07-10.76-9.81-19.29-20.1-25.39-11.6-6.18-24.93-7.32-37.67-3.17-9.69,3.58-17.02,8.68-21.86,15.19-7.71-14.26-19.2-21.67-34.28-22.03-12.54.19-23.36,5.14-32.16,14.7-8.47,9.14-14.27,21.71-17.24,37.42-.89,5.57-1.44,11.44-1.63,17.42-.17,5.84-.26,10.47-.26,13.87,0,14.68.82,24.01,2.66,29.57,2.47,5.63,7.17,8.73,13.26,8.73,8.9,0,11.87-5.73,12.35-7.06,1.19-1.9,1.77-4.15,1.77-6.83.03-1.73-.35-5.39-.65-8.08-.41-4.92-.62-10.42-.62-16.33,0-12.7.66-22.34,1.95-28.66,1.76-8.21,4.78-14.84,8.95-19.7,3.72-4.32,7.55-6.42,11.71-6.42,1.91,0,4.78.53,7.68,5.16,2.88,4.57,5.41,12.41,7.51,23.3,3.37,17.63,5.56,32.98,6.49,45.64.29,3.89.61,6.64,1.02,8.71,1.33,5.9,3.84,9.42,7.65,10.78,2.49.89,4.42,1.31,6.08,1.31,2.65,0,5.15-.73,7.44-2.17,3.92-2.46,6.14-6.37,6.42-11.44.01-24.18.12-38.11.35-42.59.19-4.24.5-7.56.88-9.64,1.84-10,4.67-16.86,8.43-20.38,3.58-3.35,7-5.05,10.03-5.06l1.28.05c5.77,1.02,9.74,3.27,12.14,6.85,2.78,4.19,4.59,9.15,5.35,14.75.86,6.15,1.34,12.75,1.42,19.67.46,11.73,1.47,20.37,3.11,26.42,1.77,6.51,4.63,11.79,8.55,15.7,5.81,5.72,12.03,8.62,18.49,8.63,5.83,0,11.12-1.22,15.7-3.62,4.28-2.23,7.19-4.08,8.77-5.57,9.14-7.6,18.85-25.04,29.66-53.34,2.14-5.76,3.84-9.95,4.93-12.12,1.17-2.34,1.76-4.68,1.76-6.95,0-2.69-.8-5.28-2.26-7.39-2.6-4.22-6.75-6.7-11.65-6.98Z"/><path class="cls-2" d="M413.11,44.67c2.58,8.54,8.19,16.17,4.19,25.23-1.67,4.23-3.91,8.39-4.41,12.98-1.13,9.67,4.2,20.5,12.56,25.81,4.12,2.63,9.18,2.65,13.87,3.23,7.13.69,10.72,6.59,15.45,11.17,5.35,5.14,12.45,8.16,19.85,8.27,12.26.12,26.2-7.28,28.8-19.75,1.14-4.78.89-10.76,5.04-14.03,1.61-1.35,3.75-2.26,6.02-3.02,4.68-1.5,9.52-2.97,13.77-5.49,10.67-5.86,18.15-18.16,11.92-29.02-22.57-39.35-57.2-15.79-58.69-3.36-1.5,12.43,7.29,17.53,2.32,21.03-5.06,3.48-14.07,5.25-19.85,3.9-4.52-1.12-8.4-4.64-10.11-8.94-2.41-5.86,4.14-6.29,6.49-14.84,2.35-8.55-6.45-10.85,3.97-21.61,11.38-11.75,5.55-8.43,24.37-3.21,7.12,1.98,29.23,2.79,21.17-21.05-4.14-12.24-12.7-15.21-26.44-8.35-3.35,1.58-6.06,3.6-8.54,5.59-1.89,1.43-3.9,3.17-6.34,3.37-2.46.35-5.26-2.36-7.2-4.29-2.02-1.94-4.19-3.88-6.81-5.05-3.77-1.72-7.87-1.83-12.02-1.32-23.79,2.29-35.29,24.95-29.41,42.65l.03.09Z"/></svg>