<?xml version="1.0" encoding="UTF-8"?><svg id="Layer_1" xmlns="http://www.w3.org/2000/svg" viewBox="0 0 689.74 205.68"><defs><style>.cls-1{fill:#262626;}</style></defs><path class="cls-1" d="M82.41,171.75h-.12c-2.71,0-5.34,1.27-7.83,3.78l-.1.11c-3.97,4.54-9.02,6.75-15.46,6.75-10.98,0-19.41-3.4-25.76-10.39-6.52-7.16-9.69-15.17-9.69-24.49s3.19-16.61,9.77-23.43c6.51-6.75,14.87-10.04,25.54-10.04,5.26,0,9.38,1.37,12.5,4.08,1.86,1.86,4.48,2.8,6.97,2.84,3.05-.03,6.04-1.4,8.4-3.85,2.37-2.47,3.62-5.45,3.62-8.62,0-2.92-1.19-5.5-3.51-7.54-8.42-6.77-17.74-10.21-27.71-10.21-15.78,0-29.67,5.41-41.28,16.08C5.97,117.65,0,131.38,0,147.65c0,10.07,2.3,19.54,6.83,28.16,4.61,8.72,11.6,15.95,20.8,21.5,9.21,5.55,19.96,8.37,31.96,8.37,12.85,0,23.62-4.87,31.88-14.35,1.89-1.87,2.88-4.22,2.88-6.81,0-3-1.25-5.85-3.71-8.49-2.62-2.81-5.4-4.25-8.24-4.3Z"/><path class="cls-1" d="M181.27,133.07c-.97-5.16-5.62-8.24-11.25-7.56-4.86.61-9.58,4.33-9.22,10.28.77,12.32-1.63,22.5-7.13,30.25-5.33,7.53-14.64,11.69-23.26,10.39-9.93-1.52-13.96-10.64-14.39-18-.6-10.21,3.5-20.93,10.96-28.67,8.8-9.13,21.9-13.66,34.19-11.82,6.02.89,11.06-2.05,12.5-7.33.77-2.79.19-6.15-1.52-8.78-1.48-2.26-3.61-3.71-6.02-4.06-18.49-2.76-36.28,2.1-50.04,13.71-12.59,10.63-20.41,26.81-20.91,43.27-.57,18.4,8.96,34.15,24.28,40.12,4.41,1.72,9.17,2.55,14,2.55,10.69,0,21.75-4.06,30.21-11.59,5.24-4.65,9.43-10.59,12.5-17.71,1.95,2.2,3.88,4.09,5.84,5.72,4.54,3.8,10.65,3.74,14.54-.14,2.02-2.02,3.15-5.05,3.01-8.11-.12-2.74-1.25-5.13-3.17-6.74-8.11-6.77-13.21-15.44-15.15-25.79Z"/><path class="cls-1" d="M683.71,121.39l-.09-.04c-3.16-1.27-6.34-1.18-8.91.22-2.79,1.44-4.7,3.94-5.69,7.39-1.71,5.68-5.19,12.62-10.35,20.64-5.17,8.06-10.43,14.7-15.56,19.68-8.97,8.13-16.92,12.25-23.65,12.25s-12.01-6.55-15.42-19.48c-1.48-5.44-2.23-9.44-2.23-11.88,0-.36.04-.57,0-.58.37-.36.93-.84,1.65-1.43,3.63-2.89,8.67-7.39,14.97-13.37,6.34-6.02,11.28-11.01,14.71-14.83,4.75-5.24,9.36-11.31,13.71-18.03,6.78-10.47,10.21-20.3,10.21-29.23,0-4.78-1.05-9.53-3.16-14.17-5.19-10.64-13.81-16.04-25.59-16.04-5.39,0-10.78,1.4-16.05,4.16-6.64,3.49-12.44,8.81-17.27,15.85-10.59,15.79-15.95,37.82-15.95,65.49l.05,1.16c-1.73,5.65-5.19,12.53-10.29,20.46-5.17,8.06-10.43,14.7-15.56,19.68-8.97,8.13-16.93,12.25-23.65,12.25s-12.01-6.55-15.42-19.48c-1.48-5.44-2.23-9.44-2.23-11.88,0-.36.04-.57,0-.58.37-.36.93-.84,1.65-1.43,3.63-2.89,8.67-7.39,14.97-13.37,6.34-6.02,11.28-11.01,14.71-14.83,4.75-5.24,9.36-11.31,13.71-18.03,6.78-10.47,10.21-20.3,10.21-29.23,0-4.78-1.05-9.53-3.16-14.17-5.19-10.64-13.81-16.04-25.59-16.04-5.39,0-10.78,1.4-16.05,4.16-6.64,3.49-12.44,8.81-17.27,15.85-10.59,15.79-15.95,37.82-15.95,65.47.03,4.42.2,8.78.47,12.95-14.25,18.66-28.12,30.65-41.25,35.62-2.76,1.05-5.28,1.8-7.71,2.3l-1.62.32c-1.02.1-2.02.2-3.05.22-.68-.02-1.27-.04-2.2-.1l-1.08-.07c-5.03-1.82-9-4.45-12.17-8.11,1.09.21,2.16.36,3.22.47,15.67,1.59,30.71-8.4,36.74-24.34,5.56-14.71.98-32.62-10.9-42.57-12.92-10.84-30.29-10.75-43.2.26-6.67,5.68-11.45,13.48-13.95,22.69-3.34-1.27-7.13-.43-10.07,2.43-3.68,3.57-5.12,9.78-.77,14.75,3.47,3.97,6.73,7.37,9.95,10.38,1.67,9.45,5.1,18.26,9.94,25.52,9.94,14.95,25.65,21.71,43.13,18.52,16.85-3.07,33-13.22,49.25-31,4.3,15.57,11.6,26.11,21.84,31.4,13.76,5.97,28.89,2.94,45.19-9.18,7.51-5.95,14.88-13.96,21.89-23.8.15-.21.3-.41.44-.62,4.23,16.83,11.69,28.1,22.34,33.6,4.58,1.98,9.35,2.99,14.19,2.99,9.72,0,20.12-4.08,31-12.17,7.5-5.95,14.88-13.96,21.9-23.81,7.01-9.84,12.25-19.56,15.53-28.83.99-2.61,1.49-4.98,1.49-7.04,0-4.35-2.09-7.59-6.03-9.36ZM412.14,135.44c1.75-8.22,6.83-17.06,14.25-18.29,7.36-1.22,14,5.95,15.37,13.15.95,5.09-.4,10.8-3.53,14.89-1.84,2.4-5.11,5.35-10.25,5.77-5.39.43-10.77-1.45-16.52-5.76-.16-3.66.06-6.86.68-9.76ZM510.39,118.03c1.89-22.72,7.19-38.93,15.67-48.09,5.11-4.92,7.62-5.89,8.67-6.03,2.2-.3,3.53-.46,3.99-.47,2.57,0,4.43,1.07,5.76,3.2.96,1.85,1.43,3.87,1.43,6.18,0,8.42-6.45,19.89-19.18,34.1-2.67,2.99-6.79,7.06-12.23,12.1-1.84,1.69-3.25,2.98-4.34,3.96l.23-4.96ZM600.25,118.03c1.89-22.72,7.19-38.93,15.67-48.09,5.11-4.92,7.62-5.89,8.67-6.03,2.2-.3,3.53-.46,3.99-.47,2.57,0,4.43,1.07,5.76,3.2.95,1.84,1.44,3.92,1.44,6.18,0,8.41-6.46,19.89-19.19,34.1-2.67,2.99-6.79,7.06-12.23,12.1-1.84,1.69-3.25,2.98-4.34,3.96l.23-4.96Z"/><path class="cls-1" d="M367.84,126.06h-.26c-3.89,0-7.24,2.27-10,6.83-1.57,2.83-3.73,7.89-6.62,15.44-10.89,27.97-16.88,29.39-17.54,29.5-.27-.21-1.09-1.52-1.66-5.04-.62-3.48-1.13-9.57-1.52-18.07-.12-7.92-1.29-15.74-3.44-23.25-2.36-8.27-7.54-14.82-15.45-19.52-8.92-4.75-19.16-5.63-28.95-2.43-7.45,2.75-13.08,6.67-16.8,11.68-5.93-10.96-14.76-16.65-26.35-16.93-9.64.15-17.95,3.95-24.72,11.3-6.51,7.03-10.96,16.69-13.25,28.76-.69,4.28-1.11,8.79-1.25,13.39-.13,4.49-.2,8.04-.2,10.66,0,11.28.63,18.45,2.05,22.73,1.9,4.33,5.51,6.71,10.19,6.71,6.84,0,9.12-4.4,9.49-5.42.91-1.46,1.36-3.19,1.36-5.25.02-1.33-.27-4.14-.5-6.21-.31-3.78-.48-8-.48-12.55,0-9.76.51-17.17,1.5-22.03,1.35-6.31,3.67-11.41,6.88-15.14,2.86-3.32,5.8-4.93,9-4.93,1.47,0,3.67.41,5.9,3.97,2.21,3.51,4.15,9.54,5.77,17.91,2.59,13.55,4.27,25.35,4.99,35.08.23,2.99.47,5.1.78,6.7,1.02,4.53,2.95,7.24,5.88,8.29,1.91.69,3.4,1.01,4.67,1.01,2.04,0,3.96-.56,5.72-1.67,3.01-1.89,4.72-4.9,4.94-8.79,0-18.58.09-29.29.27-32.73.15-3.26.38-5.81.68-7.41,1.41-7.69,3.59-12.96,6.48-15.66,2.75-2.57,5.38-3.88,7.71-3.89l.98.04c4.44.78,7.49,2.51,9.33,5.27,2.14,3.22,3.53,7.03,4.12,11.34.66,4.73,1.03,9.8,1.09,15.12.35,9.02,1.13,15.66,2.39,20.3,1.36,5.01,3.56,9.06,6.57,12.07,4.47,4.4,9.25,6.63,14.21,6.63,4.48,0,8.54-.94,12.07-2.78,3.29-1.71,5.53-3.14,6.74-4.28,7.03-5.84,14.49-19.25,22.8-41,1.65-4.43,2.95-7.65,3.79-9.31.9-1.8,1.35-3.6,1.35-5.34,0-2.07-.62-4.06-1.73-5.68-2-3.24-5.19-5.15-8.96-5.37Z"/><path class="cls-1" d="M317.5,34.33c1.98,6.57,6.29,12.43,3.22,19.39-1.28,3.25-3.01,6.45-3.39,9.97-.87,7.43,3.23,15.75,9.65,19.84,3.16,2.02,7.05,2.04,10.66,2.48,5.48.53,8.24,5.06,11.88,8.58,4.11,3.95,9.57,6.28,15.26,6.35,9.43.09,20.13-5.59,22.14-15.18.88-3.67.68-8.27,3.87-10.78,1.24-1.04,2.88-1.74,4.63-2.32,3.59-1.16,7.32-2.29,10.58-4.22,8.2-4.51,13.95-13.96,9.16-22.31-17.34-30.24-43.96-12.13-45.11-2.58-1.15,9.55,5.6,13.47,1.78,16.17-3.89,2.68-10.81,4.03-15.26,3-3.47-.86-6.46-3.57-7.77-6.87-1.85-4.51,3.18-4.84,4.99-11.41,1.8-6.57-4.96-8.34,3.05-16.61,8.74-9.03,4.26-6.48,18.73-2.47,5.47,1.52,22.46,2.14,16.27-16.18-3.18-9.41-9.76-11.69-20.32-6.42-2.58,1.22-4.66,2.77-6.56,4.3-1.45,1.1-3,2.43-4.87,2.59-1.89.27-4.04-1.81-5.54-3.3-1.55-1.49-3.22-2.98-5.23-3.88-2.9-1.32-6.05-1.4-9.24-1.01-18.29,1.76-27.12,19.17-22.6,32.78l.02.07Z"/></svg>