<?xml version="1.0" encoding="UTF-8"?><svg id="Layer_2" xmlns="http://www.w3.org/2000/svg" viewBox="0 0 56.98 54.27"><defs><style>.cls-1{fill:#ffe317;}.cls-2{fill:#ff5a5a;}</style></defs><g id="Layer_1-2"><path class="cls-2" d="M56.78,17.03c-1.08-6.7-6.83-11-13.04-11.69-.71-.19-1.46-.28-2.26-.26-.89.03-1.71.19-2.48.44-1.05.21-2.09.53-3.09.97C34.3,1.87,30.04.1,25.4,0c-4.79-.1-9.18,1.53-11.91,5.62-1.89,2.83-2.6,6.22-2.3,9.55-2.81.41-5.46,1.61-7.62,3.74C-.16,22.59-1.14,28.82,1.45,33.39c2.32,4.11,7.19,6.52,11.85,6.28.11,0,.23-.02.34-.03-.03.47-.06.94-.06,1.41,0,2.34.5,4.5,1.45,6.62,1.98,4.43,6.68,6.57,11.34,6.6,2.27.02,4.81-.24,6.83-1.3,2.51-1.32,3.97-3.95,4.49-6.65.05-.27.09-.53.13-.8,1.05.49,2.13.92,3.26,1.28,2.61.83,5.36,1.17,7.94.08,3.09-1.31,4.8-4.18,5.23-7.41.49-3.63.05-7.26-1.96-10.11,3.76-2.89,5.26-7.62,4.5-12.34Z"/><circle class="cls-1" cx="29.47" cy="26.5" r="4.14"/></g></svg>