<svg width="1059" height="320" viewBox="0 0 1059 320" fill="none" xmlns="http://www.w3.org/2000/svg">
<path d="M562.05 319.85C557.35 319.85 553.8 318.6 551.4 316.1C549.1 313.6 547.95 310.5 547.95 306.8C547.95 303.5 548.65 300.05 550.05 296.45C551.55 292.95 553.65 289.4 556.35 285.8C559.15 282.2 562.55 278.45 566.55 274.55C570.55 270.75 575.05 266.8 580.05 262.7C582.45 260.9 584.85 259.1 587.25 257.3C589.65 255.6 592 253.9 594.3 252.2C596.6 250.5 598.85 248.9 601.05 247.4L614.55 206.15C609.65 215.05 604.8 222.35 600 228.05C595.3 233.65 590.7 237.8 586.2 240.5C581.8 243.2 577.5 244.55 573.3 244.55C570 244.55 567.05 243.65 564.45 241.85C561.95 240.05 560 237.5 558.6 234.2C557.2 230.8 556.5 226.85 556.5 222.35C556.5 217.75 557.2 212.85 558.6 207.65C560.1 202.35 562.25 197.15 565.05 192.05C567.85 186.85 571.25 182.15 575.25 177.95C579.35 173.75 584 170.4 589.2 167.9C594.4 165.4 600.1 164.15 606.3 164.15C608.5 164.15 610.75 164.4 613.05 164.9C615.45 165.3 617.75 165.95 619.95 166.85C622.25 167.75 624.4 168.85 626.4 170.15L627.3 167C627.6 166.2 628 165.65 628.5 165.35C629 164.95 629.75 164.75 630.75 164.75C631.95 164.75 632.65 165.1 632.85 165.8C633.15 166.4 633.2 167.1 633 167.9L594.9 285.2C593.4 289.6 591.6 293.85 589.5 297.95C587.5 302.05 585.15 305.75 582.45 309.05C579.85 312.35 576.8 314.95 573.3 316.85C569.9 318.85 566.15 319.85 562.05 319.85ZM562.65 314.6C566.75 314.6 570.5 313.15 573.9 310.25C577.4 307.35 580.4 303.5 582.9 298.7C585.5 294 587.65 288.95 589.35 283.55L598.5 255.5C596.9 256.6 595.3 257.75 593.7 258.95C592.1 260.25 590.45 261.5 588.75 262.7C587.05 264 585.35 265.3 583.65 266.6C578.65 270.8 574.3 274.7 570.6 278.3C566.9 282 563.85 285.5 561.45 288.8C559.05 292.1 557.25 295.15 556.05 297.95C554.85 300.85 554.25 303.6 554.25 306.2C554.25 307.8 554.55 309.2 555.15 310.4C555.75 311.7 556.65 312.7 557.85 313.4C559.15 314.2 560.75 314.6 562.65 314.6ZM574.2 239.3C578.4 239.3 583.05 237.25 588.15 233.15C593.35 229.05 598.8 222.85 604.5 214.55C610.3 206.25 616.1 195.9 621.9 183.5L624.75 174.8C620.85 172.5 617.35 171.05 614.25 170.45C611.15 169.75 608.2 169.4 605.4 169.4C600.2 169.4 595.35 170.55 590.85 172.85C586.45 175.05 582.45 178.05 578.85 181.85C575.35 185.65 572.35 189.9 569.85 194.6C567.35 199.2 565.45 203.9 564.15 208.7C562.85 213.5 562.2 218.05 562.2 222.35C562.2 225.65 562.65 228.6 563.55 231.2C564.45 233.7 565.8 235.7 567.6 237.2C569.4 238.6 571.6 239.3 574.2 239.3ZM605.111 251C604.511 251.4 604.011 251.45 603.611 251.15C603.111 250.85 602.811 250.35 602.711 249.65C602.611 249.05 602.661 248.4 602.861 247.7C603.061 247 603.511 246.45 604.211 246.05C611.211 241.85 617.661 237.65 623.561 233.45C629.461 229.25 634.861 225 639.761 220.7C644.561 216.4 649.011 211.85 653.111 207.05C657.211 202.15 660.961 196.95 664.361 191.45C667.761 185.85 670.911 179.7 673.811 173C674.111 172.3 674.561 171.85 675.161 171.65C675.761 171.45 676.311 171.5 676.811 171.8C677.411 172.1 677.811 172.6 678.011 173.3C678.211 174 678.061 174.95 677.561 176.15C673.861 184.45 669.761 192 665.261 198.8C660.861 205.5 655.811 211.75 650.111 217.55C644.411 223.25 637.861 228.85 630.461 234.35C623.061 239.75 614.611 245.3 605.111 251ZM701.668 244.55C699.468 244.55 697.618 244.1 696.118 243.2C694.618 242.3 693.468 241.05 692.668 239.45C691.968 237.85 691.618 235.95 691.618 233.75C691.718 231.55 692.168 229.1 692.968 226.4C693.768 224 694.818 221.15 696.118 217.85C697.518 214.55 699.018 211.05 700.618 207.35C702.318 203.65 703.918 199.95 705.418 196.25C706.918 192.55 708.118 189.1 709.018 185.9C710.418 181.1 710.618 177.65 709.618 175.55C708.718 173.35 706.618 172.25 703.318 172.25C700.118 172.25 696.818 172.6 693.418 173.3C690.018 173.9 686.868 174.55 683.968 175.25C681.068 175.85 678.768 176.15 677.068 176.15C676.268 176.15 675.518 175.95 674.818 175.55C674.118 175.05 673.568 174.25 673.168 173.15C672.768 172.05 672.518 170.5 672.418 168.5C672.418 166.7 672.718 165.15 673.318 163.85C673.918 162.45 674.718 161.4 675.718 160.7C676.818 160 678.018 159.65 679.318 159.65C680.118 159.65 680.768 160 681.268 160.7C681.868 161.3 682.168 162.2 682.168 163.4C682.168 164.1 681.968 165.1 681.568 166.4C681.268 167.6 680.518 169.35 679.318 171.65C681.518 171.35 683.668 170.95 685.768 170.45C687.868 169.85 689.968 169.3 692.068 168.8C694.168 168.3 696.218 167.9 698.218 167.6C700.318 167.2 702.318 167 704.218 167C707.418 167 709.918 167.75 711.718 169.25C713.618 170.65 714.768 172.8 715.168 175.7C715.668 178.6 715.368 182.15 714.268 186.35C713.368 189.45 712.168 192.9 710.668 196.7C709.268 200.4 707.718 204.15 706.018 207.95C704.418 211.75 702.918 215.3 701.518 218.6C700.218 221.9 699.268 224.65 698.668 226.85C697.468 231.05 697.118 234.2 697.618 236.3C698.218 238.3 700.068 239.3 703.168 239.3C703.968 239.3 704.468 239.6 704.668 240.2C704.868 240.7 704.868 241.3 704.668 242C704.468 242.6 704.118 243.15 703.618 243.65C703.118 244.25 702.468 244.55 701.668 244.55ZM701.576 244.55C700.676 244.55 700.026 244.25 699.626 243.65C699.226 243.15 699.126 242.6 699.326 242C699.426 241.3 699.826 240.7 700.526 240.2C701.226 239.6 702.176 239.3 703.376 239.3C705.876 239.3 708.826 238.3 712.226 236.3C715.526 234.2 719.076 231.25 722.876 227.45C726.676 223.65 730.476 219.1 734.276 213.8C738.176 208.5 741.876 202.6 745.376 196.1C745.776 195.4 746.276 195.1 746.876 195.2C747.476 195.2 747.976 195.45 748.376 195.95C748.876 196.45 748.976 197.05 748.676 197.75C745.276 204.45 741.576 210.65 737.576 216.35C733.676 222.05 729.676 227 725.576 231.2C721.376 235.4 717.276 238.7 713.276 241.1C709.176 243.4 705.276 244.55 701.576 244.55ZM755.572 244.55C752.272 244.55 749.322 243.65 746.722 241.85C744.222 240.05 742.272 237.5 740.872 234.2C739.472 230.8 738.772 226.85 738.772 222.35C738.772 217.95 739.472 213.15 740.872 207.95C742.372 202.75 744.472 197.6 747.172 192.5C749.972 187.3 753.372 182.55 757.372 178.25C761.472 173.95 766.122 170.55 771.322 168.05C776.522 165.45 782.272 164.15 788.572 164.15C792.072 164.15 795.722 164.75 799.522 165.95C803.322 167.05 806.722 168.7 809.722 170.9L808.072 175.55C803.972 172.95 800.272 171.3 796.972 170.6C793.672 169.8 790.572 169.4 787.672 169.4C782.472 169.4 777.622 170.55 773.122 172.85C768.722 175.05 764.722 178.05 761.122 181.85C757.622 185.65 754.622 189.9 752.122 194.6C749.622 199.2 747.722 203.9 746.422 208.7C745.122 213.5 744.472 218.05 744.472 222.35C744.472 225.65 744.922 228.6 745.822 231.2C746.722 233.7 748.072 235.7 749.872 237.2C751.672 238.6 753.872 239.3 756.472 239.3C760.672 239.3 765.372 237.2 770.572 233C775.872 228.7 781.472 222.3 787.372 213.8C793.272 205.2 799.172 194.45 805.072 181.55L806.422 187.25C800.222 200.55 794.172 211.45 788.272 219.95C782.472 228.35 776.822 234.55 771.322 238.55C765.922 242.55 760.672 244.55 755.572 244.55ZM796.972 244.55C795.272 244.55 793.772 244.2 792.472 243.5C791.172 242.9 790.172 241.9 789.472 240.5C788.772 239.1 788.472 237.3 788.572 235.1C788.672 232.8 789.222 230.1 790.222 227L809.572 167C809.872 166.2 810.272 165.65 810.772 165.35C811.372 164.95 812.172 164.75 813.172 164.75C814.272 164.75 814.972 165.05 815.272 165.65C815.672 166.25 815.722 166.95 815.422 167.75L795.922 226.85C794.522 231.15 793.972 234.3 794.272 236.3C794.672 238.3 796.172 239.3 798.772 239.3C799.572 239.3 800.122 239.6 800.422 240.2C800.722 240.7 800.772 241.3 800.572 242C800.472 242.6 800.122 243.15 799.522 243.65C798.922 244.25 798.072 244.55 796.972 244.55ZM796.937 244.55C796.037 244.55 795.387 244.25 794.987 243.65C794.587 243.15 794.487 242.6 794.687 242C794.787 241.3 795.187 240.7 795.887 240.2C796.587 239.6 797.537 239.3 798.737 239.3C800.537 239.3 802.537 238.55 804.737 237.05C806.837 235.45 809.237 233.1 811.937 230C814.537 226.9 817.487 223 820.787 218.3C824.087 213.6 827.787 208.1 831.887 201.8C837.087 193.9 841.437 187.5 844.937 182.6C848.437 177.6 851.387 173.8 853.787 171.2C856.187 168.5 858.387 166.65 860.387 165.65C862.487 164.65 864.737 164.15 867.137 164.15C868.137 164.15 868.687 164.45 868.787 165.05C868.987 165.55 868.937 166.15 868.637 166.85C868.337 167.45 867.937 168.05 867.437 168.65C867.037 169.15 866.737 169.4 866.537 169.4C864.937 169.4 863.387 169.75 861.887 170.45C860.487 171.15 858.737 172.65 856.637 174.95C854.637 177.25 851.937 180.8 848.537 185.6C845.237 190.3 840.937 196.7 835.637 204.8C831.237 211.5 827.287 217.35 823.787 222.35C820.287 227.35 817.087 231.5 814.187 234.8C811.187 238 808.337 240.4 805.637 242C802.837 243.7 799.937 244.55 796.937 244.55ZM912.679 244.55C910.879 244.55 909.279 244.2 907.879 243.5C906.579 242.9 905.579 241.9 904.879 240.5C904.179 239.1 903.879 237.3 903.979 235.1C904.079 232.8 904.629 230.1 905.629 227L918.079 190.4C919.779 185.4 920.629 181.4 920.629 178.4C920.629 175.3 919.879 173.05 918.379 171.65C916.879 170.15 914.729 169.4 911.929 169.4C908.829 169.4 905.179 170.4 900.979 172.4C896.879 174.3 892.379 177.65 887.479 182.45C882.679 187.15 877.629 193.65 872.329 201.95C867.129 210.25 861.879 220.8 856.579 233.6L853.879 242C853.679 242.8 853.329 243.35 852.829 243.65C852.429 244.05 851.679 244.25 850.579 244.25C849.579 244.25 848.829 244.05 848.329 243.65C847.829 243.25 847.679 242.7 847.879 242L867.379 181.85C868.779 177.55 869.379 174.4 869.179 172.4C869.079 170.4 867.979 169.4 865.879 169.4C864.979 169.4 864.329 169.15 863.929 168.65C863.529 168.05 863.379 167.45 863.479 166.85C863.679 166.15 864.079 165.55 864.679 165.05C865.279 164.45 866.029 164.15 866.929 164.15C868.829 164.15 870.429 164.5 871.729 165.2C873.029 165.8 873.979 166.8 874.579 168.2C875.279 169.6 875.529 171.4 875.329 173.6C875.229 175.8 874.679 178.45 873.679 181.55L865.429 206.6C869.829 198.5 874.179 191.75 878.479 186.35C882.879 180.85 887.079 176.5 891.079 173.3C895.179 170 899.029 167.65 902.629 166.25C906.229 164.85 909.429 164.15 912.229 164.15C915.729 164.15 918.729 165 921.229 166.7C923.829 168.3 925.479 170.95 926.179 174.65C926.879 178.35 926.179 183.3 924.079 189.5L911.329 226.85C909.829 231.15 909.279 234.3 909.679 236.3C910.079 238.3 911.629 239.3 914.329 239.3C915.129 239.3 915.679 239.6 915.979 240.2C916.279 240.7 916.329 241.3 916.129 242C916.029 242.6 915.679 243.15 915.079 243.65C914.479 244.25 913.679 244.55 912.679 244.55ZM912.513 244.55C911.613 244.55 910.963 244.25 910.563 243.65C910.163 243.15 910.063 242.6 910.263 242C910.363 241.3 910.763 240.7 911.463 240.2C912.163 239.6 913.113 239.3 914.313 239.3C916.813 239.3 919.763 238.3 923.163 236.3C926.463 234.2 930.013 231.25 933.813 227.45C937.613 223.65 941.413 219.1 945.213 213.8C949.113 208.5 952.813 202.6 956.313 196.1C956.713 195.4 957.213 195.1 957.813 195.2C958.413 195.2 958.913 195.45 959.313 195.95C959.813 196.45 959.913 197.05 959.613 197.75C956.213 204.45 952.513 210.65 948.513 216.35C944.613 222.05 940.613 227 936.513 231.2C932.313 235.4 928.213 238.7 924.213 241.1C920.113 243.4 916.213 244.55 912.513 244.55ZM966.513 244.55C963.113 244.55 960.113 243.65 957.513 241.85C955.013 240.05 953.063 237.5 951.663 234.2C950.263 230.8 949.563 226.85 949.563 222.35C949.563 217.75 950.263 212.85 951.663 207.65C953.163 202.35 955.313 197.15 958.113 192.05C960.913 186.85 964.363 182.15 968.463 177.95C972.563 173.75 977.213 170.4 982.413 167.9C987.613 165.4 993.313 164.15 999.513 164.15C1002.71 164.15 1006.11 164.65 1009.71 165.65C1013.41 166.65 1016.66 168.15 1019.46 170.15L1044.81 92C1045.11 91.2 1045.51 90.65 1046.01 90.35C1046.61 89.95 1047.41 89.75 1048.41 89.75C1049.41 89.75 1050.06 90.05 1050.36 90.65C1050.76 91.25 1050.86 91.95 1050.66 92.75L1006.41 228.05C1005.31 231.45 1004.81 234.15 1004.91 236.15C1005.11 238.05 1006.21 239 1008.21 239C1010.21 239 1012.26 238.3 1014.36 236.9C1016.46 235.4 1018.46 233.65 1020.36 231.65C1022.36 229.55 1024.01 227.7 1025.31 226.1C1025.91 225.4 1026.41 225.05 1026.81 225.05C1027.31 224.95 1027.81 225.15 1028.31 225.65C1029.11 226.25 1029.51 226.8 1029.51 227.3C1029.51 227.7 1029.31 228.15 1028.91 228.65C1027.61 230.55 1025.81 232.75 1023.51 235.25C1021.31 237.65 1018.81 239.75 1016.01 241.55C1013.21 243.35 1010.26 244.25 1007.16 244.25C1004.86 244.25 1003.01 243.65 1001.61 242.45C1000.31 241.35 999.563 239.65 999.363 237.35C999.163 234.95 999.613 231.95 1000.71 228.35C1002.01 224.45 1003.26 220.6 1004.46 216.8C1005.76 212.9 1007.01 209.05 1008.21 205.25C1003.21 214.35 998.313 221.8 993.513 227.6C988.713 233.4 984.063 237.7 979.563 240.5C975.163 243.2 970.813 244.55 966.513 244.55ZM955.413 222.35C955.413 225.65 955.863 228.6 956.763 231.2C957.663 233.7 958.963 235.7 960.663 237.2C962.463 238.6 964.713 239.3 967.413 239.3C971.513 239.3 976.163 237.2 981.363 233C986.563 228.8 992.063 222.5 997.863 214.1C1003.76 205.7 1009.66 195.2 1015.56 182.6L1017.96 175.1C1014.06 172.7 1010.56 171.15 1007.46 170.45C1004.36 169.75 1001.36 169.4 998.463 169.4C993.263 169.4 988.463 170.55 984.063 172.85C979.663 175.05 975.663 178.05 972.063 181.85C968.563 185.65 965.563 189.9 963.063 194.6C960.563 199.2 958.663 203.9 957.363 208.7C956.063 213.5 955.413 218.05 955.413 222.35Z" fill="#262626"/>
<path d="M8.93555 135.945H36.1816L65.625 207.869H66.7969L96.2402 135.945H123.486V242H102.1V172.566H101.221L73.5352 241.561H58.8867L31.2012 172.273H30.3223V242H8.93555V135.945ZM176.66 243.611C152.637 243.611 137.695 227.059 137.695 202.449C137.695 177.84 152.637 161.434 176.66 161.434C200.684 161.434 215.771 177.84 215.771 202.449C215.771 227.059 200.684 243.611 176.66 243.611ZM176.807 226.766C187.939 226.766 193.652 216.365 193.652 202.449C193.652 188.387 187.939 177.986 176.807 177.986C165.527 177.986 159.668 188.387 159.668 202.449C159.668 216.365 165.527 226.766 176.807 226.766ZM258.691 243.318C240.527 243.318 226.318 228.816 226.318 202.303C226.318 175.057 241.113 161.434 258.691 161.434C272.021 161.434 278.32 169.344 281.25 175.789H281.982V135.945H303.662V242H282.275V229.256H281.25C278.174 235.848 271.582 243.318 258.691 243.318ZM265.43 226.033C276.27 226.033 282.422 216.512 282.422 202.156C282.422 187.801 276.27 178.719 265.43 178.719C254.443 178.719 248.584 188.24 248.584 202.156C248.584 216.219 254.443 226.033 265.43 226.033ZM357.129 243.611C332.812 243.611 317.871 227.791 317.871 202.596C317.871 177.986 332.959 161.434 356.25 161.434C377.197 161.434 393.604 174.617 393.604 201.717V207.869H339.258C339.258 219.881 346.436 227.352 357.568 227.352C364.893 227.352 370.166 224.129 372.363 219.295H393.018C389.941 233.943 376.758 243.611 357.129 243.611ZM339.258 194.246H373.096C373.096 184.578 366.357 177.693 356.689 177.693C346.729 177.693 339.624 185.091 339.258 194.246ZM407.227 242V162.459H428.174V176.229H429.053C431.982 166.414 439.307 161.287 448.242 161.287C450.439 161.287 453.223 161.58 455.127 162.02V181.355C453.076 180.77 448.975 180.184 445.898 180.184C436.084 180.184 428.906 187.068 428.906 196.736V242H407.227ZM487.354 196.004V242H465.674V162.459H486.328V176.375H487.207C490.869 167.146 499.365 161.434 511.084 161.434C527.637 161.434 538.623 172.713 538.477 191.316V242H516.943V195.125C516.943 185.311 511.523 179.451 502.588 179.451C493.506 179.451 487.354 185.457 487.354 196.004Z" fill="#262626"/>
<path d="M44.1562 82.6651H44.1007C42.8774 82.6651 41.6922 83.2755 40.5695 84.4852L40.5244 84.5407C38.7363 86.727 36.456 87.7888 33.552 87.7888C28.5999 87.7888 24.8018 86.1499 21.9359 82.7872C18.9973 79.3393 17.566 75.4845 17.566 70.9971C17.566 66.5097 19.0077 63.0027 21.9706 59.7213C24.9058 56.4732 28.6762 54.8899 33.4896 54.8899C35.86 54.8899 37.7174 55.5521 39.1244 56.8543C39.963 57.7495 41.1447 58.2046 42.2675 58.2231C43.6433 58.2083 44.9879 57.5498 46.0552 56.3697C47.126 55.1821 47.6874 53.7468 47.6874 52.2226C47.6874 50.8168 47.1537 49.5775 46.1072 48.5935C42.3126 45.3343 38.1055 43.6807 33.6144 43.6807C26.4999 43.6807 20.2379 46.285 15.0016 51.4235C9.68916 56.6249 7 63.2358 7 71.0674C7 75.9137 8.03616 80.475 10.0808 84.6258C12.16 88.8209 15.3135 92.3021 19.4582 94.973C23.6097 97.644 28.4578 99.0017 33.8708 99.0017C39.6615 99.0017 44.52 96.6563 48.2453 92.0949C49.0978 91.1959 49.5449 90.0639 49.5449 88.8172C49.5449 87.3744 48.98 85.9983 47.8711 84.7331C46.6894 83.3828 45.4384 82.6873 44.1562 82.6651Z" fill="#262626"/>
<path d="M88.7316 64.0496C88.295 61.5673 86.1949 60.0876 83.6617 60.4094C81.4716 60.7017 79.3403 62.4922 79.5067 65.3555C79.8532 71.2857 78.772 76.1874 76.2908 79.9164C73.8858 83.5418 69.6892 85.5469 65.8044 84.918C61.3271 84.1855 59.5078 79.7943 59.3137 76.254C59.0434 71.3375 60.8905 66.1805 64.2589 62.4515C68.2268 58.0603 74.1318 55.8776 79.6765 56.7618C82.3899 57.1872 84.6632 55.7741 85.3147 53.2363C85.6647 51.8934 85.3979 50.273 84.6286 49.0078C83.9632 47.9202 83.0033 47.2247 81.9151 47.0508C73.5774 45.7227 65.5549 48.0608 59.3553 53.6506C53.679 58.7669 50.1546 66.5541 49.9259 74.4783C49.6695 83.331 53.9631 90.9148 60.8732 93.7892C62.8623 94.6179 65.0074 95.0174 67.1871 95.0174C72.0075 95.0174 76.9943 93.0604 80.8097 89.4424C83.1731 87.2043 85.0617 84.3446 86.4479 80.919C87.3281 81.977 88.1979 82.8871 89.0816 83.6713C91.1262 85.4988 93.8847 85.4729 95.6382 83.601C96.5496 82.6281 97.0555 81.1705 96.9966 79.6982C96.9412 78.3812 96.4318 77.2269 95.5654 76.4575C91.9094 73.202 89.6118 69.0254 88.7351 64.0422L88.7316 64.0496Z" fill="#262626"/>
<path d="M315.28 58.4303L315.238 58.4118C313.81 57.8014 312.379 57.8457 311.222 58.5153C309.964 59.2108 309.101 60.4131 308.654 62.0705C307.881 64.8043 306.311 68.1486 303.989 72.0071C301.657 75.8878 299.287 79.0804 296.975 81.4813C292.928 85.3916 289.344 87.3782 286.312 87.3782C283.28 87.3782 280.896 84.2263 279.361 78.0002C278.695 75.381 278.356 73.4573 278.356 72.2846C278.356 72.1107 278.373 72.0108 278.356 72.0034C278.525 71.8295 278.775 71.6002 279.097 71.319C280.733 69.928 283.006 67.7602 285.848 64.882C288.707 61.9854 290.935 59.5845 292.477 57.7459C294.619 55.2229 296.698 52.3003 298.66 49.067C301.716 44.0284 303.265 39.2932 303.265 34.9982C303.265 32.6971 302.79 30.4109 301.841 28.1801C299.498 23.0565 295.617 20.4595 290.301 20.4595C287.872 20.4595 285.439 21.1328 283.065 22.4609C280.071 24.1404 277.455 26.7041 275.278 30.089C270.503 37.6913 268.084 48.2902 268.084 61.6118L268.105 62.1667C267.322 64.8857 265.762 68.1967 263.465 72.0145C261.133 75.8952 258.762 79.0878 256.451 81.4887C252.403 85.399 248.816 87.3856 245.788 87.3856C242.759 87.3856 240.371 84.2337 238.836 78.0075C238.171 75.3884 237.831 73.4647 237.831 72.292C237.831 72.1181 237.848 72.0182 237.831 72.0108C238.001 71.8369 238.25 71.6076 238.573 71.3264C240.208 69.9354 242.482 67.7676 245.323 64.8894C248.182 61.9928 250.411 59.5919 251.953 57.7533C254.094 55.2303 256.174 52.3077 258.135 49.0744C261.191 44.0358 262.74 39.3006 262.74 35.0056C262.74 32.7045 262.266 30.4183 261.316 28.1875C258.974 23.0639 255.092 20.4669 249.776 20.4669C247.347 20.4669 244.914 21.1402 242.541 22.4683C239.546 24.1478 236.93 26.7115 234.754 30.0964C229.978 37.6987 227.56 48.2976 227.56 61.6118C227.573 63.7426 227.646 65.8365 227.771 67.8453C221.346 76.8274 215.091 82.5985 209.172 84.9883C207.928 85.4915 206.791 85.854 205.696 86.0982L204.969 86.2498C204.511 86.2979 204.057 86.3423 203.596 86.3534C203.291 86.3423 203.021 86.3349 202.602 86.3053L202.117 86.2683C199.85 85.3953 198.059 84.1264 196.631 82.3655C197.123 82.4653 197.601 82.5393 198.083 82.5911C205.149 83.3569 211.931 78.5514 214.651 70.8751C217.156 63.7944 215.091 55.1748 209.737 50.384C203.908 45.1679 196.08 45.2122 190.258 50.5098C187.25 53.2437 185.094 56.9949 183.968 61.4305C182.461 60.8164 180.752 61.227 179.425 62.6032C177.765 64.3197 177.117 67.3088 179.079 69.7024C180.641 71.6113 182.114 73.2501 183.566 74.7003C184.318 79.2506 185.867 83.4901 188.05 86.986C192.535 94.1814 199.615 97.4369 207.498 95.9016C215.095 94.4255 222.375 89.5386 229.705 80.9819C231.642 88.4769 234.934 93.5488 239.553 96.0977C245.757 98.9684 252.58 97.5109 259.927 91.6769C263.312 88.8135 266.636 84.9588 269.796 80.2198C269.862 80.1199 269.931 80.02 269.994 79.9201C271.903 88.0182 275.264 93.4452 280.068 96.094C282.129 97.0484 284.282 97.5331 286.465 97.5331C290.845 97.5331 295.534 95.5687 300.441 91.6732C303.823 88.8098 307.15 84.955 310.314 80.2124C313.474 75.4735 315.834 70.7974 317.314 66.3359C317.761 65.0818 317.986 63.9387 317.986 62.9435C317.986 60.8497 317.047 59.2922 315.269 58.4414L315.28 58.4303ZM192.829 65.1891C193.619 61.2344 195.91 56.9764 199.254 56.3845C202.571 55.7963 205.568 59.2515 206.185 62.7142C206.615 65.1632 206.005 67.9119 204.594 69.8836C203.766 71.0379 202.29 72.4584 199.975 72.6582C197.546 72.8654 195.12 71.959 192.524 69.8873C192.455 68.1227 192.552 66.5838 192.829 65.1891ZM237.131 56.8136C237.984 45.8781 240.375 38.0761 244.194 33.6664C246.498 31.2988 247.631 30.8326 248.103 30.766C249.097 30.6218 249.693 30.5441 249.901 30.5404C251.059 30.5404 251.897 31.0546 252.5 32.083C252.933 32.9746 253.145 33.9475 253.145 35.0574C253.145 39.1082 250.237 44.6314 244.495 51.4717C243.289 52.9107 241.435 54.8714 238.982 57.2945C238.153 58.1084 237.516 58.7299 237.024 59.1997L237.128 56.8136H237.131ZM277.645 56.8136C278.498 45.8781 280.889 38.0761 284.708 33.6664C287.012 31.2988 288.145 30.8326 288.617 30.766C289.611 30.6218 290.207 30.5441 290.415 30.5404C291.573 30.5404 292.411 31.0546 293.014 32.083C293.444 32.9672 293.662 33.9697 293.662 35.0574C293.662 39.1082 290.751 44.6314 285.009 51.4717C283.803 52.9107 281.949 54.8714 279.496 57.2945C278.668 58.1084 278.03 58.7299 277.538 59.1997L277.642 56.8136H277.645Z" fill="#262626"/>
<path d="M172.855 60.6759H172.737C170.983 60.6722 169.472 61.7672 168.225 63.961C167.518 65.3261 166.541 67.7603 165.238 71.3931C160.327 84.8553 157.628 85.5397 157.33 85.5915C157.208 85.4916 156.841 84.859 156.581 83.1646C156.304 81.4925 156.072 78.5552 155.898 74.4673C155.843 70.6532 155.316 66.8909 154.346 63.2766C153.282 59.296 150.946 56.1404 147.38 53.8838C143.36 51.5975 138.741 51.1758 134.326 52.7111C130.968 54.0355 128.428 55.9222 126.751 58.3305C124.079 53.0551 120.097 50.3138 114.871 50.1807C110.526 50.251 106.776 52.0822 103.727 55.6188C100.791 59.0001 98.7814 63.6502 97.7521 69.462C97.4437 71.5226 97.2531 73.6941 97.1873 75.9064C97.1284 78.0668 97.0972 79.7797 97.0972 81.0375C97.0972 86.4682 97.3813 89.9198 98.019 91.9766C98.8749 94.0594 100.504 95.2062 102.614 95.2062C105.698 95.2062 106.728 93.0865 106.894 92.5944C107.306 91.8916 107.507 91.0592 107.507 90.0677C107.518 89.4277 107.386 88.0738 107.282 87.0786C107.14 85.2585 107.067 83.2238 107.067 81.0375C107.067 76.3392 107.296 72.773 107.743 70.435C108.353 67.3977 109.399 64.945 110.844 63.1471C112.134 61.549 113.461 60.7721 114.902 60.7721C115.564 60.7721 116.559 60.9682 117.564 62.681C118.562 64.3716 119.439 67.272 120.166 71.3006C121.334 77.8227 122.093 83.5013 122.415 88.1847C122.516 89.6238 122.627 90.6412 122.769 91.4069C123.23 93.5896 124.1 94.8918 125.42 95.3949C126.283 95.7241 126.952 95.8795 127.527 95.8795C128.445 95.8795 129.312 95.6095 130.105 95.0768C131.464 94.1667 132.233 92.7202 132.33 90.8446C132.333 81.8994 132.372 76.7462 132.451 75.0888C132.517 73.5203 132.625 72.2921 132.756 71.5226C133.394 67.8232 134.375 65.2854 135.678 63.9832C136.918 62.7439 138.103 62.115 139.153 62.1113L139.597 62.1298C141.597 62.5071 142.972 63.3395 143.804 64.6639C144.767 66.2139 145.395 68.0488 145.658 70.1205C145.956 72.3956 146.122 74.8373 146.15 77.3973C146.309 81.7367 146.659 84.933 147.228 87.1711C147.841 89.5794 148.832 91.5327 150.191 92.9792C152.204 95.0952 154.36 96.1681 156.598 96.1718C158.619 96.1718 160.452 95.7204 162.039 94.8326C163.522 94.0076 164.531 93.3232 165.078 92.772C168.246 89.9605 171.61 83.5087 175.357 73.0393C176.098 70.9085 176.687 69.3584 177.065 68.5557C177.47 67.69 177.675 66.8243 177.675 65.9846C177.675 64.9894 177.398 64.0313 176.892 63.2507C175.991 61.6895 174.553 60.7721 172.855 60.6685V60.6759Z" fill="#262626"/>
<path d="M150.159 16.5233C151.053 19.6826 152.998 22.5053 151.611 25.8569C151.033 27.4218 150.256 28.9607 150.083 30.6588C149.692 34.2361 151.539 38.2426 154.436 40.2069C155.863 41.1799 157.617 41.1873 159.242 41.4019C161.713 41.6571 162.957 43.8398 164.596 45.5341C166.45 47.4356 168.911 48.5528 171.475 48.5935C175.724 48.6379 180.554 45.9003 181.456 41.2872C181.851 39.5189 181.764 37.3066 183.202 36.0969C183.76 35.5975 184.502 35.2608 185.288 34.9797C186.91 34.4248 188.587 33.881 190.06 32.9487C193.758 30.7808 196.35 26.2306 194.191 22.213C186.369 7.65581 174.369 16.3716 173.852 20.97C173.333 25.5684 176.379 27.4551 174.656 28.7499C172.903 30.0373 169.781 30.6921 167.778 30.1926C166.211 29.7783 164.867 28.4761 164.274 26.8854C163.439 24.7175 165.709 24.5584 166.523 21.3954C167.337 18.2324 164.288 17.3816 167.899 13.401C171.842 9.05419 169.822 10.2824 176.344 12.2135C178.811 12.946 186.473 13.2456 183.68 4.42622C182.246 -0.101859 179.279 -1.20058 174.518 1.33721C173.357 1.92172 172.418 2.669 171.558 3.40518C170.903 3.9342 170.207 4.5779 169.361 4.65189C168.509 4.78137 167.538 3.77883 166.866 3.06484C166.166 2.34715 165.414 1.62947 164.506 1.19663C163.2 0.560336 161.779 0.519642 160.341 0.708312C152.097 1.55548 148.111 9.93835 150.149 16.4863L150.159 16.5196V16.5233Z" fill="#FF5A5A"/>
</svg>
