<svg width="790" height="390" viewBox="0 0 790 390" fill="none" xmlns="http://www.w3.org/2000/svg">
<path d="M365.31 389.47C361.237 389.47 358.16 388.387 356.08 386.22C354.087 384.053 353.09 381.367 353.09 378.16C353.09 375.3 353.697 372.31 354.91 369.19C356.21 366.157 358.03 363.08 360.37 359.96C362.797 356.84 365.743 353.59 369.21 350.21C372.677 346.917 376.577 343.493 380.91 339.94C382.99 338.38 385.07 336.82 387.15 335.26C389.23 333.787 391.267 332.313 393.26 330.84C395.253 329.367 397.203 327.98 399.11 326.68L410.81 290.93C406.563 298.643 402.36 304.97 398.2 309.91C394.127 314.763 390.14 318.36 386.24 320.7C382.427 323.04 378.7 324.21 375.06 324.21C372.2 324.21 369.643 323.43 367.39 321.87C365.223 320.31 363.533 318.1 362.32 315.24C361.107 312.293 360.5 308.87 360.5 304.97C360.5 300.983 361.107 296.737 362.32 292.23C363.62 287.637 365.483 283.13 367.91 278.71C370.337 274.203 373.283 270.13 376.75 266.49C380.303 262.85 384.333 259.947 388.84 257.78C393.347 255.613 398.287 254.53 403.66 254.53C405.567 254.53 407.517 254.747 409.51 255.18C411.59 255.527 413.583 256.09 415.49 256.87C417.483 257.65 419.347 258.603 421.08 259.73L421.86 257C422.12 256.307 422.467 255.83 422.9 255.57C423.333 255.223 423.983 255.05 424.85 255.05C425.89 255.05 426.497 255.353 426.67 255.96C426.93 256.48 426.973 257.087 426.8 257.78L393.78 359.44C392.48 363.253 390.92 366.937 389.1 370.49C387.367 374.043 385.33 377.25 382.99 380.11C380.737 382.97 378.093 385.223 375.06 386.87C372.113 388.603 368.863 389.47 365.31 389.47ZM365.83 384.92C369.383 384.92 372.633 383.663 375.58 381.15C378.613 378.637 381.213 375.3 383.38 371.14C385.633 367.067 387.497 362.69 388.97 358.01L396.9 333.7C395.513 334.653 394.127 335.65 392.74 336.69C391.353 337.817 389.923 338.9 388.45 339.94C386.977 341.067 385.503 342.193 384.03 343.32C379.697 346.96 375.927 350.34 372.72 353.46C369.513 356.667 366.87 359.7 364.79 362.56C362.71 365.42 361.15 368.063 360.11 370.49C359.07 373.003 358.55 375.387 358.55 377.64C358.55 379.027 358.81 380.24 359.33 381.28C359.85 382.407 360.63 383.273 361.67 383.88C362.797 384.573 364.183 384.92 365.83 384.92ZM375.84 319.66C379.48 319.66 383.51 317.883 387.93 314.33C392.437 310.777 397.16 305.403 402.1 298.21C407.127 291.017 412.153 282.047 417.18 271.3L419.65 263.76C416.27 261.767 413.237 260.51 410.55 259.99C407.863 259.383 405.307 259.08 402.88 259.08C398.373 259.08 394.17 260.077 390.27 262.07C386.457 263.977 382.99 266.577 379.87 269.87C376.837 273.163 374.237 276.847 372.07 280.92C369.903 284.907 368.257 288.98 367.13 293.14C366.003 297.3 365.44 301.243 365.44 304.97C365.44 307.83 365.83 310.387 366.61 312.64C367.39 314.807 368.56 316.54 370.12 317.84C371.68 319.053 373.587 319.66 375.84 319.66ZM402.629 329.8C402.109 330.147 401.676 330.19 401.329 329.93C400.896 329.67 400.636 329.237 400.549 328.63C400.462 328.11 400.506 327.547 400.679 326.94C400.852 326.333 401.242 325.857 401.849 325.51C407.916 321.87 413.506 318.23 418.619 314.59C423.732 310.95 428.412 307.267 432.659 303.54C436.819 299.813 440.676 295.87 444.229 291.71C447.782 287.463 451.032 282.957 453.979 278.19C456.926 273.337 459.656 268.007 462.169 262.2C462.429 261.593 462.819 261.203 463.339 261.03C463.859 260.857 464.336 260.9 464.769 261.16C465.289 261.42 465.636 261.853 465.809 262.46C465.982 263.067 465.852 263.89 465.419 264.93C462.212 272.123 458.659 278.667 454.759 284.56C450.946 290.367 446.569 295.783 441.629 300.81C436.689 305.75 431.012 310.603 424.599 315.37C418.186 320.05 410.862 324.86 402.629 329.8ZM486.313 324.21C484.406 324.21 482.803 323.82 481.503 323.04C480.203 322.26 479.206 321.177 478.513 319.79C477.906 318.403 477.603 316.757 477.603 314.85C477.689 312.943 478.079 310.82 478.773 308.48C479.466 306.4 480.376 303.93 481.503 301.07C482.716 298.21 484.016 295.177 485.403 291.97C486.876 288.763 488.263 285.557 489.563 282.35C490.863 279.143 491.903 276.153 492.683 273.38C493.896 269.22 494.069 266.23 493.203 264.41C492.423 262.503 490.603 261.55 487.743 261.55C484.969 261.55 482.109 261.853 479.163 262.46C476.216 262.98 473.486 263.543 470.973 264.15C468.459 264.67 466.466 264.93 464.993 264.93C464.299 264.93 463.649 264.757 463.043 264.41C462.436 263.977 461.959 263.283 461.613 262.33C461.266 261.377 461.049 260.033 460.963 258.3C460.963 256.74 461.223 255.397 461.743 254.27C462.263 253.057 462.956 252.147 463.823 251.54C464.776 250.933 465.816 250.63 466.943 250.63C467.636 250.63 468.199 250.933 468.633 251.54C469.153 252.06 469.413 252.84 469.413 253.88C469.413 254.487 469.239 255.353 468.893 256.48C468.633 257.52 467.983 259.037 466.943 261.03C468.849 260.77 470.713 260.423 472.533 259.99C474.353 259.47 476.173 258.993 477.993 258.56C479.813 258.127 481.589 257.78 483.323 257.52C485.143 257.173 486.876 257 488.523 257C491.296 257 493.463 257.65 495.023 258.95C496.669 260.163 497.666 262.027 498.013 264.54C498.446 267.053 498.186 270.13 497.233 273.77C496.453 276.457 495.413 279.447 494.113 282.74C492.899 285.947 491.556 289.197 490.083 292.49C488.696 295.783 487.396 298.86 486.183 301.72C485.056 304.58 484.233 306.963 483.713 308.87C482.673 312.51 482.369 315.24 482.803 317.06C483.323 318.793 484.926 319.66 487.613 319.66C488.306 319.66 488.739 319.92 488.913 320.44C489.086 320.873 489.086 321.393 488.913 322C488.739 322.52 488.436 322.997 488.003 323.43C487.569 323.95 487.006 324.21 486.313 324.21ZM486.232 324.21C485.452 324.21 484.889 323.95 484.542 323.43C484.196 322.997 484.109 322.52 484.282 322C484.369 321.393 484.716 320.873 485.322 320.44C485.929 319.92 486.752 319.66 487.792 319.66C489.959 319.66 492.516 318.793 495.462 317.06C498.322 315.24 501.399 312.683 504.692 309.39C507.986 306.097 511.279 302.153 514.572 297.56C517.952 292.967 521.159 287.853 524.192 282.22C524.539 281.613 524.972 281.353 525.492 281.44C526.012 281.44 526.446 281.657 526.792 282.09C527.226 282.523 527.312 283.043 527.052 283.65C524.106 289.457 520.899 294.83 517.432 299.77C514.052 304.71 510.586 309 507.032 312.64C503.392 316.28 499.839 319.14 496.372 321.22C492.819 323.213 489.439 324.21 486.232 324.21ZM533.029 324.21C530.169 324.21 527.613 323.43 525.359 321.87C523.193 320.31 521.503 318.1 520.289 315.24C519.076 312.293 518.469 308.87 518.469 304.97C518.469 301.157 519.076 296.997 520.289 292.49C521.589 287.983 523.409 283.52 525.749 279.1C528.176 274.593 531.123 270.477 534.589 266.75C538.143 263.023 542.173 260.077 546.679 257.91C551.186 255.657 556.169 254.53 561.629 254.53C564.663 254.53 567.826 255.05 571.119 256.09C574.413 257.043 577.359 258.473 579.959 260.38L578.529 264.41C574.976 262.157 571.769 260.727 568.909 260.12C566.049 259.427 563.363 259.08 560.849 259.08C556.343 259.08 552.139 260.077 548.239 262.07C544.426 263.977 540.959 266.577 537.839 269.87C534.806 273.163 532.206 276.847 530.039 280.92C527.873 284.907 526.226 288.98 525.099 293.14C523.973 297.3 523.409 301.243 523.409 304.97C523.409 307.83 523.799 310.387 524.579 312.64C525.359 314.807 526.529 316.54 528.089 317.84C529.649 319.053 531.556 319.66 533.809 319.66C537.449 319.66 541.523 317.84 546.029 314.2C550.623 310.473 555.476 304.927 560.589 297.56C565.703 290.107 570.816 280.79 575.929 269.61L577.099 274.55C571.726 286.077 566.483 295.523 561.369 302.89C556.343 310.17 551.446 315.543 546.679 319.01C541.999 322.477 537.449 324.21 533.029 324.21ZM568.909 324.21C567.436 324.21 566.136 323.907 565.009 323.3C563.883 322.78 563.016 321.913 562.409 320.7C561.803 319.487 561.543 317.927 561.629 316.02C561.716 314.027 562.193 311.687 563.059 309L579.829 257C580.089 256.307 580.436 255.83 580.869 255.57C581.389 255.223 582.083 255.05 582.949 255.05C583.903 255.05 584.509 255.31 584.769 255.83C585.116 256.35 585.159 256.957 584.899 257.65L567.999 308.87C566.786 312.597 566.309 315.327 566.569 317.06C566.916 318.793 568.216 319.66 570.469 319.66C571.163 319.66 571.639 319.92 571.899 320.44C572.159 320.873 572.203 321.393 572.029 322C571.943 322.52 571.639 322.997 571.119 323.43C570.599 323.95 569.863 324.21 568.909 324.21ZM568.879 324.21C568.099 324.21 567.535 323.95 567.189 323.43C566.842 322.997 566.755 322.52 566.929 322C567.015 321.393 567.362 320.873 567.969 320.44C568.575 319.92 569.399 319.66 570.439 319.66C571.999 319.66 573.732 319.01 575.639 317.71C577.459 316.323 579.539 314.287 581.879 311.6C584.132 308.913 586.689 305.533 589.549 301.46C592.409 297.387 595.615 292.62 599.169 287.16C603.675 280.313 607.445 274.767 610.479 270.52C613.512 266.187 616.069 262.893 618.149 260.64C620.229 258.3 622.135 256.697 623.869 255.83C625.689 254.963 627.639 254.53 629.719 254.53C630.585 254.53 631.062 254.79 631.149 255.31C631.322 255.743 631.279 256.263 631.019 256.87C630.759 257.39 630.412 257.91 629.979 258.43C629.632 258.863 629.372 259.08 629.199 259.08C627.812 259.08 626.469 259.383 625.169 259.99C623.955 260.597 622.439 261.897 620.619 263.89C618.885 265.883 616.545 268.96 613.599 273.12C610.739 277.193 607.012 282.74 602.419 289.76C598.605 295.567 595.182 300.637 592.149 304.97C589.115 309.303 586.342 312.9 583.829 315.76C581.229 318.533 578.759 320.613 576.419 322C573.992 323.473 571.479 324.21 568.879 324.21ZM669.188 324.21C667.628 324.21 666.241 323.907 665.028 323.3C663.901 322.78 663.035 321.913 662.428 320.7C661.821 319.487 661.561 317.927 661.648 316.02C661.735 314.027 662.211 311.687 663.078 309L673.868 277.28C675.341 272.947 676.078 269.48 676.078 266.88C676.078 264.193 675.428 262.243 674.128 261.03C672.828 259.73 670.965 259.08 668.538 259.08C665.851 259.08 662.688 259.947 659.048 261.68C655.495 263.327 651.595 266.23 647.348 270.39C643.188 274.463 638.811 280.097 634.218 287.29C629.711 294.483 625.161 303.627 620.568 314.72L618.228 322C618.055 322.693 617.751 323.17 617.318 323.43C616.971 323.777 616.321 323.95 615.368 323.95C614.501 323.95 613.851 323.777 613.418 323.43C612.985 323.083 612.855 322.607 613.028 322L629.928 269.87C631.141 266.143 631.661 263.413 631.488 261.68C631.401 259.947 630.448 259.08 628.628 259.08C627.848 259.08 627.285 258.863 626.938 258.43C626.591 257.91 626.461 257.39 626.548 256.87C626.721 256.263 627.068 255.743 627.588 255.31C628.108 254.79 628.758 254.53 629.538 254.53C631.185 254.53 632.571 254.833 633.698 255.44C634.825 255.96 635.648 256.827 636.168 258.04C636.775 259.253 636.991 260.813 636.818 262.72C636.731 264.627 636.255 266.923 635.388 269.61L628.238 291.32C632.051 284.3 635.821 278.45 639.548 273.77C643.361 269.003 647.001 265.233 650.468 262.46C654.021 259.6 657.358 257.563 660.478 256.35C663.598 255.137 666.371 254.53 668.798 254.53C671.831 254.53 674.431 255.267 676.598 256.74C678.851 258.127 680.281 260.423 680.888 263.63C681.495 266.837 680.888 271.127 679.068 276.5L668.018 308.87C666.718 312.597 666.241 315.327 666.588 317.06C666.935 318.793 668.278 319.66 670.618 319.66C671.311 319.66 671.788 319.92 672.048 320.44C672.308 320.873 672.351 321.393 672.178 322C672.091 322.52 671.788 322.997 671.268 323.43C670.748 323.95 670.055 324.21 669.188 324.21ZM669.045 324.21C668.265 324.21 667.702 323.95 667.355 323.43C667.008 322.997 666.922 322.52 667.095 322C667.182 321.393 667.528 320.873 668.135 320.44C668.742 319.92 669.565 319.66 670.605 319.66C672.772 319.66 675.328 318.793 678.275 317.06C681.135 315.24 684.212 312.683 687.505 309.39C690.798 306.097 694.092 302.153 697.385 297.56C700.765 292.967 703.972 287.853 707.005 282.22C707.352 281.613 707.785 281.353 708.305 281.44C708.825 281.44 709.258 281.657 709.605 282.09C710.038 282.523 710.125 283.043 709.865 283.65C706.918 289.457 703.712 294.83 700.245 299.77C696.865 304.71 693.398 309 689.845 312.64C686.205 316.28 682.652 319.14 679.185 321.22C675.632 323.213 672.252 324.21 669.045 324.21ZM715.845 324.21C712.898 324.21 710.298 323.43 708.045 321.87C705.878 320.31 704.188 318.1 702.975 315.24C701.762 312.293 701.155 308.87 701.155 304.97C701.155 300.983 701.762 296.737 702.975 292.23C704.275 287.637 706.138 283.13 708.565 278.71C710.992 274.203 713.982 270.13 717.535 266.49C721.088 262.85 725.118 259.947 729.625 257.78C734.132 255.613 739.072 254.53 744.445 254.53C747.218 254.53 750.165 254.963 753.285 255.83C756.492 256.697 759.308 257.997 761.735 259.73L783.705 192C783.965 191.307 784.312 190.83 784.745 190.57C785.265 190.223 785.958 190.05 786.825 190.05C787.692 190.05 788.255 190.31 788.515 190.83C788.862 191.35 788.948 191.957 788.775 192.65L750.425 309.91C749.472 312.857 749.038 315.197 749.125 316.93C749.298 318.577 750.252 319.4 751.985 319.4C753.718 319.4 755.495 318.793 757.315 317.58C759.135 316.28 760.868 314.763 762.515 313.03C764.248 311.21 765.678 309.607 766.805 308.22C767.325 307.613 767.758 307.31 768.105 307.31C768.538 307.223 768.972 307.397 769.405 307.83C770.098 308.35 770.445 308.827 770.445 309.26C770.445 309.607 770.272 309.997 769.925 310.43C768.798 312.077 767.238 313.983 765.245 316.15C763.338 318.23 761.172 320.05 758.745 321.61C756.318 323.17 753.762 323.95 751.075 323.95C749.082 323.95 747.478 323.43 746.265 322.39C745.138 321.437 744.488 319.963 744.315 317.97C744.142 315.89 744.532 313.29 745.485 310.17C746.612 306.79 747.695 303.453 748.735 300.16C749.862 296.78 750.945 293.443 751.985 290.15C747.652 298.037 743.405 304.493 739.245 309.52C735.085 314.547 731.055 318.273 727.155 320.7C723.342 323.04 719.572 324.21 715.845 324.21ZM706.225 304.97C706.225 307.83 706.615 310.387 707.395 312.64C708.175 314.807 709.302 316.54 710.775 317.84C712.335 319.053 714.285 319.66 716.625 319.66C720.178 319.66 724.208 317.84 728.715 314.2C733.222 310.56 737.988 305.1 743.015 297.82C748.128 290.54 753.242 281.44 758.355 270.52L760.435 264.02C757.055 261.94 754.022 260.597 751.335 259.99C748.648 259.383 746.048 259.08 743.535 259.08C739.028 259.08 734.868 260.077 731.055 262.07C727.242 263.977 723.775 266.577 720.655 269.87C717.622 273.163 715.022 276.847 712.855 280.92C710.688 284.907 709.042 288.98 707.915 293.14C706.788 297.3 706.225 301.243 706.225 304.97Z" fill="#262626"/>
<path d="M8.93555 135.945H36.1816L65.625 207.869H66.7969L96.2402 135.945H123.486V242H102.1V172.566H101.221L73.5352 241.561H58.8867L31.2012 172.273H30.3223V242H8.93555V135.945ZM176.66 243.611C152.637 243.611 137.695 227.059 137.695 202.449C137.695 177.84 152.637 161.434 176.66 161.434C200.684 161.434 215.771 177.84 215.771 202.449C215.771 227.059 200.684 243.611 176.66 243.611ZM176.807 226.766C187.939 226.766 193.652 216.365 193.652 202.449C193.652 188.387 187.939 177.986 176.807 177.986C165.527 177.986 159.668 188.387 159.668 202.449C159.668 216.365 165.527 226.766 176.807 226.766ZM258.691 243.318C240.527 243.318 226.318 228.816 226.318 202.303C226.318 175.057 241.113 161.434 258.691 161.434C272.021 161.434 278.32 169.344 281.25 175.789H281.982V135.945H303.662V242H282.275V229.256H281.25C278.174 235.848 271.582 243.318 258.691 243.318ZM265.43 226.033C276.27 226.033 282.422 216.512 282.422 202.156C282.422 187.801 276.27 178.719 265.43 178.719C254.443 178.719 248.584 188.24 248.584 202.156C248.584 216.219 254.443 226.033 265.43 226.033ZM357.129 243.611C332.812 243.611 317.871 227.791 317.871 202.596C317.871 177.986 332.959 161.434 356.25 161.434C377.197 161.434 393.604 174.617 393.604 201.717V207.869H339.258C339.258 219.881 346.436 227.352 357.568 227.352C364.893 227.352 370.166 224.129 372.363 219.295H393.018C389.941 233.943 376.758 243.611 357.129 243.611ZM339.258 194.246H373.096C373.096 184.578 366.357 177.693 356.689 177.693C346.729 177.693 339.624 185.091 339.258 194.246ZM407.227 242V162.459H428.174V176.229H429.053C431.982 166.414 439.307 161.287 448.242 161.287C450.439 161.287 453.223 161.58 455.127 162.02V181.355C453.076 180.77 448.975 180.184 445.898 180.184C436.084 180.184 428.906 187.068 428.906 196.736V242H407.227ZM487.354 196.004V242H465.674V162.459H486.328V176.375H487.207C490.869 167.146 499.365 161.434 511.084 161.434C527.637 161.434 538.623 172.713 538.477 191.316V242H516.943V195.125C516.943 185.311 511.523 179.451 502.588 179.451C493.506 179.451 487.354 185.457 487.354 196.004Z" fill="#262626"/>
<path d="M44.1562 82.6651H44.1007C42.8774 82.6651 41.6922 83.2755 40.5695 84.4852L40.5244 84.5407C38.7363 86.727 36.456 87.7888 33.552 87.7888C28.5999 87.7888 24.8018 86.1499 21.9359 82.7872C18.9973 79.3393 17.566 75.4845 17.566 70.9971C17.566 66.5097 19.0077 63.0027 21.9706 59.7213C24.9058 56.4732 28.6762 54.8899 33.4896 54.8899C35.86 54.8899 37.7174 55.5521 39.1244 56.8543C39.963 57.7495 41.1447 58.2046 42.2675 58.2231C43.6433 58.2083 44.9879 57.5498 46.0552 56.3697C47.126 55.1821 47.6874 53.7468 47.6874 52.2226C47.6874 50.8168 47.1537 49.5775 46.1072 48.5935C42.3126 45.3343 38.1055 43.6807 33.6144 43.6807C26.4999 43.6807 20.2379 46.285 15.0016 51.4235C9.68916 56.6249 7 63.2358 7 71.0674C7 75.9137 8.03616 80.475 10.0808 84.6258C12.16 88.8209 15.3135 92.3021 19.4582 94.973C23.6097 97.644 28.4578 99.0017 33.8708 99.0017C39.6615 99.0017 44.52 96.6563 48.2453 92.0949C49.0978 91.1959 49.5449 90.0639 49.5449 88.8172C49.5449 87.3744 48.98 85.9983 47.8711 84.7331C46.6894 83.3828 45.4384 82.6873 44.1562 82.6651Z" fill="#262626"/>
<path d="M88.7316 64.0496C88.295 61.5673 86.1949 60.0876 83.6617 60.4094C81.4716 60.7017 79.3403 62.4922 79.5067 65.3555C79.8532 71.2857 78.772 76.1874 76.2908 79.9164C73.8858 83.5418 69.6892 85.5469 65.8044 84.918C61.3271 84.1855 59.5078 79.7943 59.3137 76.254C59.0434 71.3375 60.8905 66.1805 64.2589 62.4515C68.2268 58.0603 74.1318 55.8776 79.6765 56.7618C82.3899 57.1872 84.6632 55.7741 85.3147 53.2363C85.6647 51.8934 85.3979 50.273 84.6286 49.0078C83.9632 47.9202 83.0033 47.2247 81.9151 47.0508C73.5774 45.7227 65.5549 48.0608 59.3553 53.6506C53.679 58.7669 50.1546 66.5541 49.9259 74.4783C49.6695 83.331 53.9631 90.9148 60.8732 93.7892C62.8623 94.6179 65.0074 95.0174 67.1871 95.0174C72.0075 95.0174 76.9943 93.0604 80.8097 89.4424C83.1731 87.2043 85.0617 84.3446 86.4479 80.919C87.3281 81.977 88.1979 82.8871 89.0816 83.6713C91.1262 85.4988 93.8847 85.4729 95.6382 83.601C96.5496 82.6281 97.0555 81.1705 96.9966 79.6982C96.9412 78.3812 96.4318 77.2269 95.5654 76.4575C91.9094 73.202 89.6118 69.0254 88.7351 64.0422L88.7316 64.0496Z" fill="#262626"/>
<path d="M315.28 58.4303L315.238 58.4118C313.81 57.8014 312.379 57.8457 311.222 58.5153C309.964 59.2108 309.101 60.4131 308.654 62.0705C307.881 64.8043 306.311 68.1486 303.989 72.0071C301.657 75.8878 299.287 79.0804 296.975 81.4813C292.928 85.3916 289.344 87.3782 286.312 87.3782C283.28 87.3782 280.896 84.2263 279.361 78.0002C278.695 75.381 278.356 73.4573 278.356 72.2846C278.356 72.1107 278.373 72.0108 278.356 72.0034C278.525 71.8295 278.775 71.6002 279.097 71.319C280.733 69.928 283.006 67.7602 285.848 64.882C288.707 61.9854 290.935 59.5845 292.477 57.7459C294.619 55.2229 296.698 52.3003 298.66 49.067C301.716 44.0284 303.265 39.2932 303.265 34.9982C303.265 32.6971 302.79 30.4109 301.841 28.1801C299.498 23.0565 295.617 20.4595 290.301 20.4595C287.872 20.4595 285.439 21.1328 283.065 22.4609C280.071 24.1404 277.455 26.7041 275.278 30.089C270.503 37.6913 268.084 48.2902 268.084 61.6118L268.105 62.1667C267.322 64.8857 265.762 68.1967 263.465 72.0145C261.133 75.8952 258.762 79.0878 256.451 81.4887C252.403 85.399 248.816 87.3856 245.788 87.3856C242.759 87.3856 240.371 84.2337 238.836 78.0075C238.171 75.3884 237.831 73.4647 237.831 72.292C237.831 72.1181 237.848 72.0182 237.831 72.0108C238.001 71.8369 238.25 71.6076 238.573 71.3264C240.208 69.9354 242.482 67.7676 245.323 64.8894C248.182 61.9928 250.411 59.5919 251.953 57.7533C254.094 55.2303 256.174 52.3077 258.135 49.0744C261.191 44.0358 262.74 39.3006 262.74 35.0056C262.74 32.7045 262.266 30.4183 261.316 28.1875C258.974 23.0639 255.092 20.4669 249.776 20.4669C247.347 20.4669 244.914 21.1402 242.541 22.4683C239.546 24.1478 236.93 26.7115 234.754 30.0964C229.978 37.6987 227.56 48.2976 227.56 61.6118C227.573 63.7426 227.646 65.8365 227.771 67.8453C221.346 76.8274 215.091 82.5985 209.172 84.9883C207.928 85.4915 206.791 85.854 205.696 86.0982L204.969 86.2498C204.511 86.2979 204.057 86.3423 203.596 86.3534C203.291 86.3423 203.021 86.3349 202.602 86.3053L202.117 86.2683C199.85 85.3953 198.059 84.1264 196.631 82.3655C197.123 82.4653 197.601 82.5393 198.083 82.5911C205.149 83.3569 211.931 78.5514 214.651 70.8751C217.156 63.7944 215.091 55.1748 209.737 50.384C203.908 45.1679 196.08 45.2122 190.258 50.5098C187.25 53.2437 185.094 56.9949 183.968 61.4305C182.461 60.8164 180.752 61.227 179.425 62.6032C177.765 64.3197 177.117 67.3088 179.079 69.7024C180.641 71.6113 182.114 73.2501 183.566 74.7003C184.318 79.2506 185.867 83.4901 188.05 86.986C192.535 94.1814 199.615 97.4369 207.498 95.9016C215.095 94.4255 222.375 89.5386 229.705 80.9819C231.642 88.4769 234.934 93.5488 239.553 96.0977C245.757 98.9684 252.58 97.5109 259.927 91.6769C263.312 88.8135 266.636 84.9588 269.796 80.2198C269.862 80.1199 269.931 80.02 269.994 79.9201C271.903 88.0182 275.264 93.4452 280.068 96.094C282.129 97.0484 284.282 97.5331 286.465 97.5331C290.845 97.5331 295.534 95.5687 300.441 91.6732C303.823 88.8098 307.15 84.955 310.314 80.2124C313.474 75.4735 315.834 70.7974 317.314 66.3359C317.761 65.0818 317.986 63.9387 317.986 62.9435C317.986 60.8497 317.047 59.2922 315.269 58.4414L315.28 58.4303ZM192.829 65.1891C193.619 61.2344 195.91 56.9764 199.254 56.3845C202.571 55.7963 205.568 59.2515 206.185 62.7142C206.615 65.1632 206.005 67.9119 204.594 69.8836C203.766 71.0379 202.29 72.4584 199.975 72.6582C197.546 72.8654 195.12 71.959 192.524 69.8873C192.455 68.1227 192.552 66.5838 192.829 65.1891ZM237.131 56.8136C237.984 45.8781 240.375 38.0761 244.194 33.6664C246.498 31.2988 247.631 30.8326 248.103 30.766C249.097 30.6218 249.693 30.5441 249.901 30.5404C251.059 30.5404 251.897 31.0546 252.5 32.083C252.933 32.9746 253.145 33.9475 253.145 35.0574C253.145 39.1082 250.237 44.6314 244.495 51.4717C243.289 52.9107 241.435 54.8714 238.982 57.2945C238.153 58.1084 237.516 58.7299 237.024 59.1997L237.128 56.8136H237.131ZM277.645 56.8136C278.498 45.8781 280.889 38.0761 284.708 33.6664C287.012 31.2988 288.145 30.8326 288.617 30.766C289.611 30.6218 290.207 30.5441 290.415 30.5404C291.573 30.5404 292.411 31.0546 293.014 32.083C293.444 32.9672 293.662 33.9697 293.662 35.0574C293.662 39.1082 290.751 44.6314 285.009 51.4717C283.803 52.9107 281.949 54.8714 279.496 57.2945C278.668 58.1084 278.03 58.7299 277.538 59.1997L277.642 56.8136H277.645Z" fill="#262626"/>
<path d="M172.855 60.6759H172.737C170.983 60.6722 169.472 61.7672 168.225 63.961C167.518 65.3261 166.541 67.7603 165.238 71.3931C160.327 84.8553 157.628 85.5397 157.33 85.5915C157.208 85.4916 156.841 84.859 156.581 83.1646C156.304 81.4925 156.072 78.5552 155.898 74.4673C155.843 70.6532 155.316 66.8909 154.346 63.2766C153.282 59.296 150.946 56.1404 147.38 53.8838C143.36 51.5975 138.741 51.1758 134.326 52.7111C130.968 54.0355 128.428 55.9222 126.751 58.3305C124.079 53.0551 120.097 50.3138 114.871 50.1807C110.526 50.251 106.776 52.0822 103.727 55.6188C100.791 59.0001 98.7814 63.6502 97.7521 69.462C97.4437 71.5226 97.2531 73.6941 97.1873 75.9064C97.1284 78.0668 97.0972 79.7797 97.0972 81.0375C97.0972 86.4682 97.3813 89.9198 98.019 91.9766C98.8749 94.0594 100.504 95.2062 102.614 95.2062C105.698 95.2062 106.728 93.0865 106.894 92.5944C107.306 91.8916 107.507 91.0592 107.507 90.0677C107.518 89.4277 107.386 88.0738 107.282 87.0786C107.14 85.2585 107.067 83.2238 107.067 81.0375C107.067 76.3392 107.296 72.773 107.743 70.435C108.353 67.3977 109.399 64.945 110.844 63.1471C112.134 61.549 113.461 60.7721 114.902 60.7721C115.564 60.7721 116.559 60.9682 117.564 62.681C118.562 64.3716 119.439 67.272 120.166 71.3006C121.334 77.8227 122.093 83.5013 122.415 88.1847C122.516 89.6238 122.627 90.6412 122.769 91.4069C123.23 93.5896 124.1 94.8918 125.42 95.3949C126.283 95.7241 126.952 95.8795 127.527 95.8795C128.445 95.8795 129.312 95.6095 130.105 95.0768C131.464 94.1667 132.233 92.7202 132.33 90.8446C132.333 81.8994 132.372 76.7462 132.451 75.0888C132.517 73.5203 132.625 72.2921 132.756 71.5226C133.394 67.8232 134.375 65.2854 135.678 63.9832C136.918 62.7439 138.103 62.115 139.153 62.1113L139.597 62.1298C141.597 62.5071 142.972 63.3395 143.804 64.6639C144.767 66.2139 145.395 68.0488 145.658 70.1205C145.956 72.3956 146.122 74.8373 146.15 77.3973C146.309 81.7367 146.659 84.933 147.228 87.1711C147.841 89.5794 148.832 91.5327 150.191 92.9792C152.204 95.0952 154.36 96.1681 156.598 96.1718C158.619 96.1718 160.452 95.7204 162.039 94.8326C163.522 94.0076 164.531 93.3232 165.078 92.772C168.246 89.9605 171.61 83.5087 175.357 73.0393C176.098 70.9085 176.687 69.3584 177.065 68.5557C177.47 67.69 177.675 66.8243 177.675 65.9846C177.675 64.9894 177.398 64.0313 176.892 63.2507C175.991 61.6895 174.553 60.7721 172.855 60.6685V60.6759Z" fill="#262626"/>
<path d="M150.159 16.5233C151.053 19.6826 152.998 22.5053 151.611 25.8569C151.033 27.4218 150.256 28.9607 150.083 30.6588C149.692 34.2361 151.539 38.2426 154.436 40.2069C155.863 41.1799 157.617 41.1873 159.242 41.4019C161.713 41.6571 162.957 43.8398 164.596 45.5341C166.45 47.4356 168.911 48.5528 171.475 48.5935C175.724 48.6379 180.554 45.9003 181.456 41.2872C181.851 39.5189 181.764 37.3066 183.202 36.0969C183.76 35.5975 184.502 35.2608 185.288 34.9797C186.91 34.4248 188.587 33.881 190.06 32.9487C193.758 30.7808 196.35 26.2306 194.191 22.213C186.369 7.65581 174.369 16.3716 173.852 20.97C173.333 25.5684 176.379 27.4551 174.656 28.7499C172.903 30.0373 169.781 30.6921 167.778 30.1926C166.211 29.7783 164.867 28.4761 164.274 26.8854C163.439 24.7175 165.709 24.5584 166.523 21.3954C167.337 18.2324 164.288 17.3816 167.899 13.401C171.842 9.05419 169.822 10.2824 176.344 12.2135C178.811 12.946 186.473 13.2456 183.68 4.42622C182.246 -0.101859 179.279 -1.20058 174.518 1.33721C173.357 1.92172 172.418 2.669 171.558 3.40518C170.903 3.9342 170.207 4.5779 169.361 4.65189C168.509 4.78137 167.538 3.77883 166.866 3.06484C166.166 2.34715 165.414 1.62947 164.506 1.19663C163.2 0.560336 161.779 0.519642 160.341 0.708312C152.097 1.55548 148.111 9.93835 150.149 16.4863L150.159 16.5196V16.5233Z" fill="#FF5A5A"/>
</svg>
