<svg width="46" height="46" viewBox="0 0 46 46" fill="none" xmlns="http://www.w3.org/2000/svg">
<path fill-rule="evenodd" clip-rule="evenodd" d="M33.9595 20.119C33.9595 21.8053 33.6274 23.475 32.9821 25.0329C32.3368 26.5908 31.391 28.0063 30.1986 29.1986C29.0063 30.391 27.5908 31.3368 26.0329 31.9821C24.475 32.6274 22.8053 32.9595 21.119 32.9595C19.4328 32.9595 17.763 32.6274 16.2052 31.9821C14.6473 31.3368 13.2317 30.391 12.0394 29.1986C10.847 28.0063 9.90121 26.5908 9.25592 25.0329C8.61062 23.475 8.27849 21.8053 8.27849 20.119C8.27849 16.7135 9.63133 13.4475 12.0394 11.0394C14.4475 8.63133 17.7135 7.27849 21.119 7.27849C24.5245 7.27849 27.7906 8.63133 30.1986 11.0394C32.6067 13.4475 33.9595 16.7135 33.9595 20.119ZM31.6197 33.6444C28.1795 36.3151 23.8508 37.5744 19.5148 37.1659C15.1788 36.7574 11.1615 34.7118 8.28063 31.4455C5.3998 28.1792 3.87205 23.9378 4.0084 19.5847C4.14475 15.2316 5.93495 11.0941 9.01455 8.01455C12.0941 4.93495 16.2316 3.14475 20.5847 3.0084C24.9378 2.87205 29.1792 4.3998 32.4455 7.28063C35.7118 10.1615 37.7574 14.1788 38.1659 18.5148C38.5744 22.8508 37.3151 27.1795 34.6444 30.6197L43.3189 39.2942C43.5291 39.4901 43.6978 39.7264 43.8147 39.9889C43.9317 40.2514 43.9946 40.5348 43.9997 40.8222C44.0047 41.1095 43.9519 41.3949 43.8442 41.6614C43.7366 41.9279 43.5764 42.17 43.3732 42.3732C43.17 42.5764 42.9279 42.7366 42.6614 42.8442C42.3949 42.9519 42.1095 43.0047 41.8222 42.9997C41.5348 42.9946 41.2514 42.9317 40.9889 42.8147C40.7264 42.6978 40.4901 42.5291 40.2942 42.3189L31.6197 33.6444Z" fill="black"/>
</svg>
