<svg width="24" height="21" viewBox="0 0 24 21" fill="none" xmlns="http://www.w3.org/2000/svg">
<path d="M12 3.32777L11.3972 3.91124C11.4753 3.99268 11.5689 4.05746 11.6725 4.10171C11.7761 4.14596 11.8875 4.16877 12 4.16877C12.1125 4.16877 12.2239 4.14596 12.3275 4.10171C12.4311 4.05746 12.5247 3.99268 12.6028 3.91124L12 3.32777ZM9.1267 17.7146C7.43442 16.3738 5.58474 15.0644 4.11684 13.4037C2.67907 11.7745 1.67442 9.87491 1.67442 7.40865H0C0 10.4 1.23907 12.6823 2.86549 14.5213C4.46177 16.3278 6.49786 17.7752 8.08967 19.0364L9.1267 17.7146ZM1.67442 7.40865C1.67442 4.99625 3.0307 2.97208 4.8826 2.12045C6.68205 1.2935 9.09991 1.5123 11.3972 3.91124L12.6028 2.74543C9.87907 -0.101201 6.7133 -0.571339 4.18605 0.589979C1.7146 1.72661 0 4.36566 0 7.40865H1.67442ZM8.08967 19.0364C8.66233 19.4897 9.27628 19.9722 9.89805 20.338C10.5198 20.7038 11.2298 21 12 21V19.3169C11.654 19.3169 11.2476 19.1823 10.7431 18.8849C10.2374 18.5887 9.71386 18.1803 9.1267 17.7146L8.08967 19.0364ZM15.9103 19.0364C17.5021 17.7741 19.5382 16.3289 21.1345 14.5213C22.7609 12.6811 24 10.4 24 7.40865H22.3256C22.3256 9.87491 21.3209 11.7745 19.8832 13.4037C18.4153 15.0644 16.5656 16.3738 14.8733 17.7146L15.9103 19.0364ZM24 7.40865C24 4.36566 22.2865 1.72661 19.814 0.589979C17.2867 -0.571339 14.1232 -0.101201 11.3972 2.74431L12.6028 3.91124C14.9001 1.51342 17.318 1.2935 19.1174 2.12045C20.9693 2.97208 22.3256 4.99513 22.3256 7.40865H24ZM14.8733 17.7146C14.2861 18.1803 13.7626 18.5887 13.2569 18.8849C12.7513 19.1812 12.346 19.3169 12 19.3169V21C12.7702 21 13.4802 20.7027 14.102 20.338C14.7248 19.9722 15.3377 19.4897 15.9103 19.0364L14.8733 17.7146Z" fill="#CCCCCC"/>
</svg>
