<svg width="46" height="46" viewBox="0 0 46 46" fill="none" xmlns="http://www.w3.org/2000/svg">
<path d="M8.46437 19.184C8.53715 18.2772 8.94879 17.4312 9.61732 16.8143C10.2859 16.1974 11.1622 15.8549 12.0719 15.8551H33.8871C34.7967 15.8549 35.6731 16.1974 36.3416 16.8143C37.0102 17.4312 37.4218 18.2772 37.4946 19.184L38.9473 37.2759C38.9873 37.7737 38.9238 38.2745 38.7607 38.7466C38.5976 39.2187 38.3386 39.652 37.9999 40.019C37.6612 40.3861 37.2501 40.6791 36.7926 40.8796C36.3352 41.08 35.8411 41.1836 35.3416 41.1837H10.6173C10.1178 41.1836 9.62379 41.08 9.1663 40.8796C8.70881 40.6791 8.29777 40.3861 7.95906 40.019C7.62035 39.652 7.36131 39.2187 7.19825 38.7466C7.03519 38.2745 6.97164 37.7737 7.0116 37.2759L8.46437 19.184Z" stroke="black" stroke-width="4" stroke-linecap="round" stroke-linejoin="round"/>
<path d="M30.2162 21.2827V12.2367C30.2162 10.3174 29.4537 8.47675 28.0966 7.11959C26.7394 5.76244 24.8987 5 22.9794 5C21.0601 5 19.2194 5.76244 17.8623 7.11959C16.5051 8.47675 15.7427 10.3174 15.7427 12.2367V21.2827" stroke="black" stroke-width="4" stroke-linecap="round" stroke-linejoin="round"/>
</svg>
