<svg width="719" height="337" viewBox="0 0 719 337" fill="none" xmlns="http://www.w3.org/2000/svg">
<path d="M309.4 261.05C308.7 261.05 308.25 260.75 308.05 260.15C307.75 259.65 307.7 259.1 307.9 258.5C308 257.8 308.35 257.2 308.95 256.7C309.55 256.1 310.3 255.8 311.2 255.8C313 255.8 315.3 255.15 318.1 253.85C320.9 252.45 324 250.55 327.4 248.15C330.8 245.65 334.45 242.7 338.35 239.3C342.35 235.8 346.45 232 350.65 227.9C354.85 223.8 359.05 219.4 363.25 214.7C367.85 209.6 372.3 204.25 376.6 198.65C381 193.05 385.2 187.35 389.2 181.55C393.3 175.75 397 170 400.3 164.3C403.7 158.5 406.65 152.95 409.15 147.65C411.75 142.25 413.7 137.15 415 132.35C416.4 127.55 417.1 123.2 417.1 119.3C417.1 118.4 417.4 117.7 418 117.2C418.6 116.6 419.25 116.35 419.95 116.45C420.75 116.45 421.45 116.7 422.05 117.2C422.65 117.7 422.95 118.4 422.95 119.3C422.95 123.2 422.25 127.65 420.85 132.65C419.45 137.55 417.4 142.8 414.7 148.4C412.1 153.9 409 159.65 405.4 165.65C401.9 171.55 398.05 177.5 393.85 183.5C389.75 189.4 385.35 195.3 380.65 201.2C376.05 207 371.35 212.55 366.55 217.85C362.15 222.75 357.7 227.4 353.2 231.8C348.8 236.1 344.5 240.05 340.3 243.65C336.1 247.15 332.1 250.2 328.3 252.8C324.4 255.4 320.85 257.4 317.65 258.8C314.45 260.3 311.7 261.05 309.4 261.05ZM340.15 336.05C337.05 336.05 334.6 335.3 332.8 333.8C330.9 332.4 329.65 330.15 329.05 327.05C328.45 324.05 328.5 320.25 329.2 315.65C329.9 311.15 331.3 305.8 333.4 299.6L385.3 140.3C389.2 128.3 393.15 119.55 397.15 114.05C401.25 108.45 405.75 105.65 410.65 105.65C413.55 105.65 415.9 106.25 417.7 107.45C419.5 108.65 420.8 110.3 421.6 112.4C422.5 114.4 422.95 116.7 422.95 119.3C422.95 120.2 422.65 120.9 422.05 121.4C421.45 121.9 420.75 122.15 419.95 122.15C419.25 122.15 418.6 121.9 418 121.4C417.4 120.9 417.1 120.2 417.1 119.3C417.1 117.5 416.85 116 416.35 114.8C415.95 113.5 415.25 112.55 414.25 111.95C413.35 111.25 412.15 110.9 410.65 110.9C408.15 110.9 405.8 112.05 403.6 114.35C401.4 116.65 399.15 120.25 396.85 125.15C394.65 129.95 392.3 136.1 389.8 143.6L365.65 218C366.55 222.1 367.2 226.7 367.6 231.8C368.1 236.9 368.4 242.25 368.5 247.85C368.6 253.45 368.45 259.15 368.05 264.95C367.75 270.75 367.3 276.4 366.7 281.9C366.2 287.4 365.5 292.6 364.6 297.5C363.8 302.4 362.9 306.8 361.9 310.7C360.6 316 358.9 320.55 356.8 324.35C354.8 328.15 352.45 331.05 349.75 333.05C347.05 335.05 343.85 336.05 340.15 336.05ZM340.75 330.8C342.65 330.8 344.35 330.35 345.85 329.45C347.35 328.55 348.75 327.2 350.05 325.4C351.35 323.6 352.5 321.45 353.5 318.95C354.5 316.55 355.45 313.75 356.35 310.55C357.25 307.15 358.1 303.25 358.9 298.85C359.8 294.45 360.5 289.75 361 284.75C361.6 279.75 362.1 274.65 362.5 269.45C363 264.25 363.3 259.2 363.4 254.3C363.5 249.3 363.45 244.6 363.25 240.2C363.15 235.8 362.8 231.9 362.2 228.5L338.5 301.55C335.3 311.45 333.95 318.8 334.45 323.6C334.95 328.4 337.05 330.8 340.75 330.8ZM386.129 253.1C382.329 253.1 378.929 251.7 375.929 248.9C372.929 246.1 370.329 242.1 368.129 236.9C365.929 231.7 364.079 225.45 362.579 218.15C362.479 217.55 362.629 217.1 363.029 216.8C363.429 216.5 363.879 216.45 364.379 216.65C364.879 216.75 365.229 217.15 365.429 217.85C367.029 224.15 368.879 229.6 370.979 234.2C373.079 238.7 375.479 242.2 378.179 244.7C380.779 247.1 383.629 248.3 386.729 248.3C389.529 248.3 392.879 247.15 396.779 244.85C400.579 242.55 404.679 239.35 409.079 235.25C413.479 231.05 418.029 226.25 422.729 220.85C427.529 215.35 432.279 209.5 436.979 203.3C441.779 197 446.429 190.6 450.929 184.1C455.429 177.5 459.579 171 463.379 164.6C467.279 158.1 470.629 152 473.429 146.3C476.229 140.5 478.429 135.3 480.029 130.7C481.729 126.1 482.579 122.35 482.579 119.45C482.579 118.55 482.879 117.85 483.479 117.35C484.079 116.85 484.729 116.6 485.429 116.6C486.229 116.6 486.929 116.85 487.529 117.35C488.129 117.85 488.429 118.55 488.429 119.45C488.429 122.55 487.579 126.5 485.879 131.3C484.179 136 481.829 141.35 478.829 147.35C475.829 153.35 472.329 159.7 468.329 166.4C464.329 173 459.979 179.7 455.279 186.5C450.579 193.3 445.679 199.95 440.579 206.45C435.479 212.95 430.379 219 425.279 224.6C420.279 230.2 415.379 235.15 410.579 239.45C405.779 243.75 401.329 247.1 397.229 249.5C393.029 251.9 389.329 253.1 386.129 253.1ZM434.121 261.05C429.421 261.05 425.871 259.6 423.471 256.7C421.071 253.7 419.871 249.5 419.871 244.1C419.971 238.7 421.171 232.45 423.471 225.35L451.071 140.3C454.971 128.3 458.921 119.55 462.921 114.05C467.021 108.45 471.521 105.65 476.421 105.65C479.321 105.65 481.671 106.25 483.471 107.45C485.271 108.65 486.571 110.3 487.371 112.4C488.271 114.4 488.721 116.7 488.721 119.3C488.721 120.2 488.421 120.9 487.821 121.4C487.221 121.9 486.521 122.15 485.721 122.15C485.021 122.15 484.371 121.9 483.771 121.4C483.171 120.9 482.871 120.2 482.871 119.3C482.871 117.5 482.621 116 482.121 114.8C481.721 113.5 481.021 112.55 480.021 111.95C479.121 111.25 477.921 110.9 476.421 110.9C473.921 110.9 471.521 112.05 469.221 114.35C467.021 116.65 464.821 120.25 462.621 125.15C460.521 129.95 458.171 136.1 455.571 143.6L428.871 226.25C426.671 232.95 425.471 238.5 425.271 242.9C425.171 247.2 425.971 250.45 427.671 252.65C429.471 254.75 432.171 255.8 435.771 255.8C436.671 255.8 437.271 256.1 437.571 256.7C437.871 257.2 437.921 257.8 437.721 258.5C437.521 259.1 437.071 259.65 436.371 260.15C435.771 260.75 435.021 261.05 434.121 261.05ZM433.905 261.05C433.005 261.05 432.405 260.75 432.105 260.15C431.805 259.65 431.805 259.1 432.105 258.5C432.405 257.8 432.905 257.2 433.605 256.7C434.305 256.1 435.105 255.8 436.005 255.8C440.405 255.8 445.855 254.55 452.355 252.05C458.855 249.45 466.205 245.4 474.405 239.9C474.905 239.6 475.355 239.55 475.755 239.75C476.155 239.95 476.455 240.35 476.655 240.95C476.955 241.55 477.055 242.15 476.955 242.75C476.855 243.35 476.505 243.85 475.905 244.25C470.005 248.15 464.455 251.35 459.255 253.85C453.955 256.35 449.205 258.15 445.005 259.25C440.705 260.45 437.005 261.05 433.905 261.05ZM473.955 240.05C475.655 239.05 477.255 237.95 478.755 236.75C480.355 235.55 481.955 234.35 483.555 233.15C489.855 228.25 495.155 223.65 499.455 219.35C503.755 214.95 507.005 210.75 509.205 206.75C511.405 202.65 512.505 198.7 512.505 194.9C512.505 192.2 511.855 190 510.555 188.3C509.255 186.6 507.255 185.75 504.555 185.75C503.655 185.75 503.005 185.5 502.605 185C502.305 184.5 502.205 183.9 502.305 183.2C502.505 182.5 502.905 181.9 503.505 181.4C504.105 180.9 504.855 180.65 505.755 180.65C508.555 180.65 510.855 181.2 512.655 182.3C514.555 183.4 515.955 184.95 516.855 186.95C517.755 188.95 518.205 191.4 518.205 194.3C518.205 198.8 517.055 203.3 514.755 207.8C512.455 212.2 508.855 216.85 503.955 221.75C499.155 226.65 492.905 232 485.205 237.8C483.705 238.9 482.205 240 480.705 241.1C479.205 242.2 477.705 243.3 476.205 244.4L473.955 240.05ZM495.155 261.05C491.955 261.05 489.105 260.5 486.605 259.4C484.005 258.3 481.755 256.75 479.855 254.75C477.955 252.65 476.405 250.25 475.205 247.55C474.005 244.75 473.105 241.75 472.505 238.55C471.905 235.25 471.605 231.85 471.605 228.35C471.605 223.55 472.355 218.4 473.855 212.9C475.255 207.4 477.405 202.2 480.305 197.3C483.105 192.4 486.655 188.4 490.955 185.3C495.255 182.2 500.205 180.65 505.805 180.65C506.705 180.65 507.355 180.9 507.755 181.4C508.055 181.9 508.155 182.5 508.055 183.2C507.855 183.9 507.455 184.5 506.855 185C506.255 185.5 505.505 185.75 504.605 185.75C500.105 185.75 496.155 187.2 492.755 190.1C489.255 193 486.405 196.75 484.205 201.35C481.905 205.85 480.205 210.55 479.105 215.45C477.905 220.25 477.305 224.6 477.305 228.5C477.305 232.2 477.655 235.7 478.355 239C479.055 242.3 480.155 245.2 481.655 247.7C483.155 250.2 485.105 252.2 487.505 253.7C489.905 255.1 492.805 255.8 496.205 255.8C500.305 255.8 505.505 253.65 511.805 249.35C518.105 244.95 525.305 237.85 533.405 228.05C541.605 218.25 550.405 205.25 559.805 189.05C560.305 188.25 560.855 187.95 561.455 188.15C562.055 188.25 562.505 188.6 562.805 189.2C563.105 189.8 563.055 190.5 562.655 191.3C553.255 208.3 544.455 221.9 536.255 232.1C528.155 242.3 520.655 249.7 513.755 254.3C506.855 258.8 500.655 261.05 495.155 261.05ZM555.305 260.75C552.105 260.75 549.305 259.95 546.905 258.35C544.505 256.65 542.955 253.95 542.255 250.25C541.655 246.55 542.355 241.6 544.355 235.4L561.605 183.5C561.905 182.7 562.255 182.15 562.655 181.85C563.155 181.45 563.955 181.25 565.055 181.25C565.955 181.25 566.655 181.5 567.155 182C567.655 182.4 567.755 183 567.455 183.8L550.655 234.5C549.055 239.4 548.205 243.4 548.105 246.5C548.005 249.6 548.655 251.9 550.055 253.4C551.455 254.8 553.455 255.5 556.055 255.5C559.055 255.5 562.605 254.55 566.705 252.65C570.805 250.65 575.255 247.25 580.055 242.45C584.855 237.65 589.855 231.1 595.055 222.8C600.255 214.4 605.505 203.75 610.805 190.85L613.355 182.9C613.655 182.1 614.005 181.55 614.405 181.25C614.905 180.85 615.705 180.65 616.805 180.65C617.705 180.65 618.405 180.85 618.905 181.25C619.505 181.55 619.655 182.1 619.355 182.9L599.555 243.35C598.155 247.65 597.655 250.8 598.055 252.8C598.455 254.8 600.155 255.8 603.155 255.8C603.955 255.8 604.505 256.1 604.805 256.7C605.105 257.2 605.155 257.8 604.955 258.5C604.855 259.1 604.505 259.65 603.905 260.15C603.305 260.75 602.455 261.05 601.355 261.05C599.455 261.05 597.805 260.7 596.405 260C595.105 259.4 594.055 258.4 593.255 257C592.555 255.6 592.205 253.8 592.205 251.6C592.305 249.3 592.855 246.6 593.855 243.5L602.255 217.55C597.955 225.75 593.605 232.65 589.205 238.25C584.805 243.75 580.555 248.15 576.455 251.45C572.355 254.75 568.505 257.1 564.905 258.5C561.305 260 558.105 260.75 555.305 260.75ZM601.343 261.05C600.443 261.05 599.843 260.75 599.543 260.15C599.243 259.65 599.243 259.1 599.543 258.5C599.743 257.8 600.193 257.2 600.893 256.7C601.493 256.1 602.243 255.8 603.143 255.8C607.243 255.8 611.293 254.95 615.293 253.25C619.193 251.45 623.393 248.2 627.893 243.5C632.293 238.8 637.243 232.15 642.743 223.55C648.343 214.85 654.743 203.6 661.943 189.8C662.143 189.5 662.493 189.3 662.993 189.2C663.593 189.1 664.193 189.1 664.793 189.2C665.493 189.3 665.993 189.55 666.293 189.95C666.693 190.25 666.693 190.8 666.293 191.6C659.593 204.9 653.493 216.05 647.993 225.05C642.493 233.95 637.293 241.05 632.393 246.35C627.493 251.55 622.543 255.3 617.543 257.6C612.543 259.9 607.143 261.05 601.343 261.05ZM687.648 260.75C685.948 260.75 684.498 260.4 683.298 259.7C682.098 259.1 681.198 258.1 680.598 256.7C679.998 255.3 679.798 253.5 679.998 251.3C680.198 249.1 680.798 246.45 681.798 243.35C682.698 240.55 683.848 237.45 685.248 234.05C686.748 230.65 688.248 227.15 689.748 223.55C691.348 219.85 692.848 216.2 694.248 212.6C695.748 209 696.948 205.6 697.848 202.4C699.248 197.6 699.448 194.15 698.448 192.05C697.548 189.85 695.448 188.75 692.148 188.75C689.348 188.75 686.148 189.1 682.548 189.8C679.048 190.5 675.698 191.25 672.498 192.05C669.398 192.75 666.998 193.1 665.298 193.1C664.698 193.1 664.098 192.85 663.498 192.35C662.898 191.85 662.398 191.05 661.998 189.95C661.598 188.75 661.348 187.1 661.248 185C661.248 183.2 661.548 181.65 662.148 180.35C662.748 178.95 663.548 177.9 664.548 177.2C665.648 176.5 666.848 176.15 668.148 176.15C668.948 176.15 669.598 176.5 670.098 177.2C670.698 177.8 670.998 178.7 670.998 179.9C670.998 180.6 670.798 181.6 670.398 182.9C670.098 184.1 669.348 185.85 668.148 188.15C671.048 187.65 673.898 187.05 676.698 186.35C679.598 185.65 682.398 185 685.098 184.4C687.798 183.8 690.448 183.5 693.048 183.5C696.248 183.5 698.748 184.25 700.548 185.75C702.448 187.15 703.598 189.3 703.998 192.2C704.498 195.1 704.198 198.65 703.098 202.85C702.398 205.55 701.348 208.7 699.948 212.3C698.548 215.9 697.048 219.6 695.448 223.4C693.848 227.2 692.298 230.85 690.798 234.35C689.398 237.75 688.298 240.65 687.498 243.05C686.098 247.35 685.448 250.5 685.548 252.5C685.648 254.5 686.748 255.5 688.848 255.5C690.948 255.5 693.048 254.8 695.148 253.4C697.248 251.9 699.248 250.15 701.148 248.15C703.148 246.05 704.798 244.2 706.098 242.6C706.598 241.9 707.048 241.55 707.448 241.55C707.948 241.55 708.498 241.75 709.098 242.15C709.898 242.75 710.248 243.3 710.148 243.8C710.148 244.2 709.948 244.65 709.548 245.15C708.248 247.05 706.448 249.25 704.148 251.75C701.948 254.15 699.398 256.25 696.498 258.05C693.698 259.85 690.748 260.75 687.648 260.75Z" fill="#262626"/>
<path d="M8.93555 245.5V139.445H50.5371C74.707 139.445 88.4766 154.24 88.4766 175.188C88.4766 196.428 74.4141 210.93 49.9512 210.93H30.9082V245.5H8.93555ZM30.9082 193.205H46.4355C59.4727 193.205 65.7715 185.881 65.7715 175.188C65.7715 164.641 59.4727 157.463 46.4355 157.463H30.9082V193.205ZM136.67 247.111C112.354 247.111 97.4121 231.291 97.4121 206.096C97.4121 181.486 112.5 164.934 135.791 164.934C156.738 164.934 173.145 178.117 173.145 205.217V211.369H118.799C118.799 223.381 125.977 230.852 137.109 230.852C144.434 230.852 149.707 227.629 151.904 222.795H172.559C169.482 237.443 156.299 247.111 136.67 247.111ZM118.799 197.746H152.637C152.637 188.078 145.898 181.193 136.23 181.193C126.27 181.193 119.165 188.591 118.799 197.746ZM228.662 165.959V182.219H213.721V221.037C213.721 227.336 216.797 228.947 221.191 229.094C223.389 229.094 227.197 228.947 229.834 228.654V245.793C227.49 246.232 223.682 246.525 218.262 246.525C202.588 246.525 191.895 239.494 192.041 224.113V182.219H181.055V165.959H192.041V146.916H213.721V165.959H228.662ZM242.285 245.5V165.959H263.965V245.5H242.285ZM253.125 155.559C246.533 155.559 241.26 150.578 241.26 144.572C241.26 138.42 246.533 133.439 253.125 133.439C259.57 133.439 264.844 138.42 264.844 144.572C264.844 150.578 259.57 155.559 253.125 155.559ZM322.705 165.959V182.219H307.764V221.037C307.764 227.336 310.84 228.947 315.234 229.094C317.432 229.094 321.24 228.947 323.877 228.654V245.793C321.533 246.232 317.725 246.525 312.305 246.525C296.631 246.525 285.938 239.494 286.084 224.113V182.219H275.098V165.959H286.084V146.916H307.764V165.959H322.705Z" fill="#262626"/>
<path d="M46.1562 82.6651H46.1007C44.8774 82.6651 43.6922 83.2755 42.5695 84.4852L42.5244 84.5407C40.7363 86.727 38.456 87.7888 35.552 87.7888C30.5999 87.7888 26.8018 86.1499 23.9359 82.7872C20.9973 79.3393 19.566 75.4845 19.566 70.9971C19.566 66.5097 21.0077 63.0027 23.9706 59.7213C26.9058 56.4732 30.6762 54.8899 35.4896 54.8899C37.86 54.8899 39.7174 55.5521 41.1244 56.8543C41.963 57.7495 43.1447 58.2046 44.2675 58.2231C45.6433 58.2083 46.9879 57.5498 48.0552 56.3697C49.126 55.1821 49.6874 53.7468 49.6874 52.2226C49.6874 50.8168 49.1537 49.5775 48.1072 48.5935C44.3126 45.3343 40.1055 43.6807 35.6144 43.6807C28.4999 43.6807 22.2379 46.285 17.0016 51.4235C11.6892 56.6249 9 63.2358 9 71.0674C9 75.9137 10.0362 80.475 12.0808 84.6258C14.16 88.8209 17.3135 92.3021 21.4582 94.973C25.6097 97.644 30.4578 99.0017 35.8708 99.0017C41.6615 99.0017 46.52 96.6563 50.2453 92.0949C51.0978 91.1959 51.5449 90.0639 51.5449 88.8172C51.5449 87.3744 50.98 85.9983 49.8711 84.7331C48.6894 83.3828 47.4384 82.6873 46.1562 82.6651Z" fill="#262626"/>
<path d="M90.7319 64.0496C90.2952 61.5673 88.1952 60.0876 85.662 60.4094C83.4718 60.7017 81.3406 62.4922 81.5069 65.3555C81.8535 71.2857 80.7723 76.1874 78.291 79.9164C75.886 83.5418 71.6894 85.5469 67.8047 84.918C63.3274 84.1855 61.508 79.7943 61.314 76.254C61.0437 71.3375 62.8907 66.1805 66.2591 62.4515C70.227 58.0603 76.1321 55.8776 81.6767 56.7618C84.3901 57.1872 86.6635 55.7741 87.315 53.2363C87.665 51.8934 87.3981 50.273 86.6288 49.0078C85.9634 47.9202 85.0035 47.2247 83.9154 47.0508C75.5776 45.7227 67.5552 48.0608 61.3556 53.6506C55.6792 58.7669 52.1549 66.5541 51.9262 74.4783C51.6697 83.331 55.9634 90.9148 62.8734 93.7892C64.8626 94.6179 67.0076 95.0174 69.1874 95.0174C74.0078 95.0174 78.9945 93.0604 82.8099 89.4424C85.1733 87.2043 87.062 84.3446 88.4481 80.919C89.3284 81.977 90.1982 82.8871 91.0819 83.6713C93.1264 85.4988 95.8849 85.4729 97.6384 83.601C98.5498 82.6281 99.0558 81.1705 98.9969 79.6982C98.9414 78.3812 98.432 77.2269 97.5657 76.4575C93.9096 73.202 91.6121 69.0254 90.7353 64.0422L90.7319 64.0496Z" fill="#262626"/>
<path d="M317.28 58.4303L317.238 58.4118C315.81 57.8014 314.379 57.8457 313.222 58.5153C311.964 59.2108 311.101 60.4131 310.654 62.0705C309.881 64.8043 308.311 68.1486 305.989 72.0071C303.657 75.8878 301.287 79.0804 298.975 81.4813C294.928 85.3916 291.344 87.3782 288.312 87.3782C285.28 87.3782 282.896 84.2263 281.361 78.0002C280.695 75.381 280.356 73.4573 280.356 72.2846C280.356 72.1107 280.373 72.0108 280.356 72.0034C280.525 71.8295 280.775 71.6002 281.097 71.319C282.733 69.928 285.006 67.7602 287.848 64.882C290.707 61.9854 292.935 59.5845 294.477 57.7459C296.619 55.2229 298.698 52.3003 300.66 49.067C303.716 44.0284 305.265 39.2932 305.265 34.9982C305.265 32.6971 304.79 30.4109 303.841 28.1801C301.498 23.0565 297.617 20.4595 292.301 20.4595C289.872 20.4595 287.439 21.1328 285.065 22.4609C282.071 24.1404 279.455 26.7041 277.278 30.089C272.503 37.6913 270.084 48.2902 270.084 61.6118L270.105 62.1667C269.322 64.8857 267.762 68.1967 265.465 72.0145C263.133 75.8952 260.762 79.0878 258.451 81.4887C254.403 85.399 250.816 87.3856 247.788 87.3856C244.759 87.3856 242.371 84.2337 240.836 78.0075C240.171 75.3884 239.831 73.4647 239.831 72.292C239.831 72.1181 239.848 72.0182 239.831 72.0108C240.001 71.8369 240.25 71.6076 240.573 71.3264C242.208 69.9354 244.482 67.7676 247.323 64.8894C250.182 61.9928 252.411 59.5919 253.953 57.7533C256.094 55.2303 258.174 52.3077 260.135 49.0744C263.191 44.0358 264.74 39.3006 264.74 35.0056C264.74 32.7045 264.266 30.4183 263.316 28.1875C260.974 23.0639 257.092 20.4669 251.776 20.4669C249.347 20.4669 246.914 21.1402 244.541 22.4683C241.546 24.1478 238.93 26.7115 236.754 30.0964C231.978 37.6987 229.56 48.2976 229.56 61.6118C229.573 63.7426 229.646 65.8365 229.771 67.8453C223.346 76.8274 217.091 82.5985 211.172 84.9883C209.928 85.4915 208.791 85.854 207.696 86.0982L206.969 86.2498C206.511 86.2979 206.057 86.3423 205.596 86.3534C205.291 86.3423 205.021 86.3349 204.602 86.3053L204.117 86.2683C201.85 85.3953 200.059 84.1264 198.631 82.3655C199.123 82.4653 199.601 82.5393 200.083 82.5911C207.149 83.3569 213.931 78.5514 216.651 70.8751C219.156 63.7944 217.091 55.1748 211.737 50.384C205.908 45.1679 198.08 45.2122 192.258 50.5098C189.25 53.2437 187.094 56.9949 185.968 61.4305C184.461 60.8164 182.752 61.227 181.425 62.6032C179.765 64.3197 179.117 67.3088 181.079 69.7024C182.641 71.6113 184.114 73.2501 185.566 74.7003C186.318 79.2506 187.867 83.4901 190.05 86.986C194.535 94.1814 201.615 97.4369 209.498 95.9016C217.095 94.4255 224.375 89.5386 231.705 80.9819C233.642 88.4769 236.934 93.5488 241.553 96.0977C247.757 98.9684 254.58 97.5109 261.927 91.6769C265.312 88.8135 268.636 84.9588 271.796 80.2198C271.862 80.1199 271.931 80.02 271.994 79.9201C273.903 88.0182 277.264 93.4452 282.068 96.094C284.129 97.0484 286.282 97.5331 288.465 97.5331C292.845 97.5331 297.534 95.5687 302.441 91.6732C305.823 88.8098 309.15 84.955 312.314 80.2124C315.474 75.4735 317.834 70.7974 319.314 66.3359C319.761 65.0818 319.986 63.9387 319.986 62.9435C319.986 60.8497 319.047 59.2922 317.269 58.4414L317.28 58.4303ZM194.829 65.1891C195.619 61.2344 197.91 56.9764 201.254 56.3845C204.571 55.7963 207.568 59.2515 208.185 62.7142C208.615 65.1632 208.005 67.9119 206.594 69.8836C205.766 71.0379 204.29 72.4584 201.975 72.6582C199.546 72.8654 197.12 71.959 194.524 69.8873C194.455 68.1227 194.552 66.5838 194.829 65.1891ZM239.131 56.8136C239.984 45.8781 242.375 38.0761 246.194 33.6664C248.498 31.2988 249.631 30.8326 250.103 30.766C251.097 30.6218 251.693 30.5441 251.901 30.5404C253.059 30.5404 253.897 31.0546 254.5 32.083C254.933 32.9746 255.145 33.9475 255.145 35.0574C255.145 39.1082 252.237 44.6314 246.495 51.4717C245.289 52.9107 243.435 54.8714 240.982 57.2945C240.153 58.1084 239.516 58.7299 239.024 59.1997L239.128 56.8136H239.131ZM279.645 56.8136C280.498 45.8781 282.889 38.0761 286.708 33.6664C289.012 31.2988 290.145 30.8326 290.617 30.766C291.611 30.6218 292.207 30.5441 292.415 30.5404C293.573 30.5404 294.411 31.0546 295.014 32.083C295.444 32.9672 295.662 33.9697 295.662 35.0574C295.662 39.1082 292.751 44.6314 287.009 51.4717C285.803 52.9107 283.949 54.8714 281.496 57.2945C280.668 58.1084 280.03 58.7299 279.538 59.1997L279.642 56.8136H279.645Z" fill="#262626"/>
<path d="M174.855 60.6759H174.737C172.983 60.6722 171.472 61.7672 170.225 63.961C169.518 65.3261 168.541 67.7603 167.238 71.3931C162.327 84.8553 159.628 85.5397 159.33 85.5915C159.208 85.4916 158.841 84.859 158.581 83.1646C158.304 81.4925 158.072 78.5552 157.898 74.4673C157.843 70.6532 157.316 66.8909 156.346 63.2766C155.282 59.296 152.946 56.1404 149.38 53.8838C145.36 51.5975 140.741 51.1758 136.326 52.7111C132.968 54.0355 130.428 55.9222 128.751 58.3305C126.079 53.0551 122.097 50.3138 116.871 50.1807C112.526 50.251 108.776 52.0822 105.727 55.6188C102.791 59.0001 100.781 63.6502 99.7521 69.462C99.4437 71.5226 99.2531 73.6941 99.1873 75.9064C99.1284 78.0668 99.0972 79.7797 99.0972 81.0375C99.0972 86.4682 99.3813 89.9198 100.019 91.9766C100.875 94.0594 102.504 95.2062 104.614 95.2062C107.698 95.2062 108.728 93.0865 108.894 92.5944C109.306 91.8916 109.507 91.0592 109.507 90.0677C109.518 89.4277 109.386 88.0738 109.282 87.0786C109.14 85.2585 109.067 83.2238 109.067 81.0375C109.067 76.3392 109.296 72.773 109.743 70.435C110.353 67.3977 111.399 64.945 112.844 63.1471C114.134 61.549 115.461 60.7721 116.902 60.7721C117.564 60.7721 118.559 60.9682 119.564 62.681C120.562 64.3716 121.439 67.272 122.166 71.3006C123.334 77.8227 124.093 83.5013 124.415 88.1847C124.516 89.6238 124.627 90.6412 124.769 91.4069C125.23 93.5896 126.1 94.8918 127.42 95.3949C128.283 95.7241 128.952 95.8795 129.527 95.8795C130.445 95.8795 131.312 95.6095 132.105 95.0768C133.464 94.1667 134.233 92.7202 134.33 90.8446C134.333 81.8994 134.372 76.7462 134.451 75.0888C134.517 73.5203 134.625 72.2921 134.756 71.5226C135.394 67.8232 136.375 65.2854 137.678 63.9832C138.918 62.7439 140.103 62.115 141.153 62.1113L141.597 62.1298C143.597 62.5071 144.972 63.3395 145.804 64.6639C146.767 66.2139 147.395 68.0488 147.658 70.1205C147.956 72.3956 148.122 74.8373 148.15 77.3973C148.309 81.7367 148.659 84.933 149.228 87.1711C149.841 89.5794 150.832 91.5327 152.191 92.9792C154.204 95.0952 156.36 96.1681 158.598 96.1718C160.619 96.1718 162.452 95.7204 164.039 94.8326C165.522 94.0076 166.531 93.3232 167.078 92.772C170.246 89.9605 173.61 83.5087 177.357 73.0393C178.098 70.9085 178.687 69.3584 179.065 68.5557C179.47 67.69 179.675 66.8243 179.675 65.9846C179.675 64.9894 179.398 64.0313 178.892 63.2507C177.991 61.6895 176.553 60.7721 174.855 60.6685V60.6759Z" fill="#262626"/>
<path d="M152.16 16.5233C153.054 19.6826 154.998 22.5053 153.612 25.8569C153.033 27.4218 152.257 28.9607 152.083 30.6588C151.692 34.2361 153.539 38.2426 156.436 40.2069C157.864 41.1799 159.617 41.1873 161.242 41.4019C163.713 41.6571 164.957 43.8398 166.597 45.5341C168.451 47.4356 170.911 48.5528 173.475 48.5935C177.724 48.6379 182.555 45.9003 183.456 41.2872C183.851 39.5189 183.764 37.3066 185.202 36.0969C185.76 35.5975 186.502 35.2608 187.288 34.9797C188.91 34.4248 190.588 33.881 192.06 32.9487C195.758 30.7808 198.35 26.2306 196.191 22.213C188.37 7.65581 176.369 16.3716 175.853 20.97C175.333 25.5684 178.379 27.4551 176.657 28.7499C174.903 30.0373 171.781 30.6921 169.778 30.1926C168.211 29.7783 166.867 28.4761 166.274 26.8854C165.439 24.7175 167.709 24.5584 168.523 21.3954C169.338 18.2324 166.288 17.3816 169.899 13.401C173.843 9.05419 171.822 10.2824 178.344 12.2135C180.812 12.946 188.474 13.2456 185.681 4.42622C184.246 -0.101859 181.279 -1.20058 176.518 1.33721C175.357 1.92172 174.418 2.669 173.559 3.40518C172.904 3.9342 172.207 4.5779 171.361 4.65189C170.509 4.78137 169.539 3.77883 168.866 3.06484C168.166 2.34715 167.414 1.62947 166.506 1.19663C165.2 0.560336 163.779 0.519642 162.341 0.708312C154.097 1.55548 150.112 9.93835 152.149 16.4863L152.16 16.5196V16.5233Z" fill="#FF5A5A"/>
</svg>
