<?xml version="1.0" encoding="UTF-8"?><svg id="Layer_1" xmlns="http://www.w3.org/2000/svg" viewBox="0 0 795.27 798.14"><defs><style>.cls-1{fill:#ff5a5a;}</style></defs><path class="cls-1" d="M9.4,271.42c15.66,51.91,49.75,98.26,25.44,153.28-10.14,25.68-23.77,50.97-26.79,78.86-6.85,58.77,25.52,124.56,76.33,156.85,25.02,15.97,55.76,16.1,84.26,19.6,43.32,4.17,65.12,40.02,93.9,67.87,32.5,31.26,75.65,49.61,120.63,50.24,74.52.71,159.18-44.24,175.02-119.99,6.93-29.03,5.41-65.39,30.6-85.23,9.8-8.22,22.79-13.73,36.58-18.35,28.41-9.13,57.83-18.08,83.68-33.38,64.83-35.63,110.3-110.37,72.46-176.35-137.12-239.09-347.56-95.92-356.66-20.42-9.1,75.51,44.29,106.51,14.1,127.81-30.73,21.15-85.47,31.87-120.62,23.7-27.44-6.8-51.07-28.2-61.44-54.33-14.64-35.64,25.17-38.25,39.43-90.17,14.26-51.92-39.2-65.92,24.11-131.32,69.13-71.41,33.7-51.25,148.09-19.49,43.26,12.01,177.61,16.96,128.62-127.92-25.15-74.38-77.14-92.4-160.66-50.72-20.37,9.62-36.83,21.86-51.88,33.98-11.5,8.71-23.73,19.23-38.51,20.5-14.92,2.12-31.96-14.34-43.77-26.07-12.25-11.81-25.47-23.6-41.35-30.71-22.89-10.46-47.83-11.1-73.04-8.01C43.34,25.55-26.52,163.26,9.24,270.86l.17.56Z"/></svg>