<svg width="380" height="74" viewBox="0 0 380 74" fill="none" xmlns="http://www.w3.org/2000/svg">
<path d="M24.1992 31.3159C23.9648 28.2104 21.6797 26.394 17.5781 26.394C13.5352 26.394 11.4844 28.1519 11.4258 30.5542C11.3672 33.1909 13.9453 34.48 17.7539 35.3003L21.4453 36.1792C29.5898 37.9956 34.3359 42.0386 34.3945 48.8354C34.3359 56.8628 28.125 61.7261 17.5781 61.7261C7.03125 61.7261 0.175781 56.9214 0 47.1948H9.60938C9.84375 51.2964 12.8906 53.4058 17.4609 53.4058C21.6797 53.4058 24.1992 51.5308 24.2578 48.8354C24.1992 46.3745 22.0312 45.0854 17.3438 44.0308L12.8906 42.9761C5.56641 41.2769 1.11328 37.644 1.11328 31.2573C1.05469 23.4058 8.02734 18.1323 17.6367 18.1323C27.4219 18.1323 33.6914 23.4644 33.8086 31.3159H24.1992ZM54.3164 61.7261C44.3555 61.7261 38.2617 55.5151 38.2617 45.3784C38.2617 35.5347 44.4141 28.9136 53.9648 28.9136C62.8711 28.9136 69.3164 34.5972 69.3164 45.144V47.6636H47.9883V47.8394C47.9883 51.9409 50.5078 54.5776 54.4922 54.5776C57.1875 54.5776 59.1797 53.4058 60 51.5308H69.1992C68.0273 57.7417 62.5781 61.7261 54.3164 61.7261ZM47.9883 41.8628H60.1172C60.0586 38.4644 57.5977 36.062 54.1992 36.062C50.6836 36.062 48.1348 38.5522 47.9883 41.8628ZM80.1562 61.1401L71.7773 29.3237H81.6797L86.1328 49.8901H86.3672L91.1133 29.3237H100.781L105.645 49.7729H105.879L110.156 29.3237H120.117L111.738 61.1401H101.191L96.1523 42.2729H95.7422L90.7031 61.1401H80.1562ZM124.102 61.1401V29.3237H134.004V61.1401H124.102ZM129.082 25.5151C126.27 25.5151 123.984 23.4058 123.984 20.769C123.984 18.1323 126.27 16.0229 129.082 16.0229C131.895 16.0229 134.238 18.1323 134.238 20.769C134.238 23.4058 131.895 25.5151 129.082 25.5151ZM150.234 42.9175V61.1401H140.332V29.3237H149.707V35.1245H150.059C151.523 31.2573 155.039 28.9136 159.727 28.9136C166.406 28.9136 170.801 33.6597 170.742 40.8667V61.1401H160.898V42.7417C160.898 39.1675 158.965 36.9995 155.684 36.9995C152.402 36.9995 150.234 39.2261 150.234 42.9175ZM191.719 73.7378C182.578 73.7378 177.129 69.5776 176.66 63.5425H186.27C186.68 65.8276 188.848 66.8237 191.953 66.8237C195.527 66.8237 197.988 65.3589 197.988 61.1987V55.5737H197.637C196.406 58.4448 193.359 60.73 188.613 60.73C181.582 60.73 175.84 55.8667 175.84 45.144C175.84 34.0112 181.875 28.9136 188.555 28.9136C193.652 28.9136 196.406 31.9019 197.578 34.7729H197.871V29.3237H207.715V61.3159C207.715 69.4019 201.211 73.7378 191.719 73.7378ZM191.953 53.4644C195.762 53.4644 197.988 50.3589 197.988 45.144C197.988 39.9292 195.82 36.6479 191.953 36.6479C188.086 36.6479 185.977 40.0464 185.977 45.144C185.977 50.3589 188.145 53.4644 191.953 53.4644ZM237.639 62.1601C234.919 62.1601 232.499 61.6801 230.379 60.7201C228.299 59.7601 226.519 58.3801 225.039 56.5801C223.559 54.7801 222.419 52.6401 221.619 50.1601C220.859 47.6801 220.479 44.9201 220.479 41.8801C220.479 38.1601 220.899 34.5601 221.739 31.0801C222.579 27.6001 223.759 24.3201 225.279 21.2401C226.799 18.1201 228.599 15.2801 230.679 12.7201C232.799 10.1601 235.119 7.96013 237.639 6.12013C240.159 4.24013 242.839 2.80013 245.679 1.80014C248.519 0.760132 251.439 0.24013 254.439 0.24013C256.799 0.24013 258.939 0.500131 260.859 1.02013C262.779 1.50013 264.479 2.24013 265.959 3.24013C267.479 4.24013 268.779 5.50013 269.859 7.02013C270.099 7.38013 270.159 7.70013 270.039 7.98013C269.959 8.26013 269.699 8.48013 269.259 8.64013C268.859 8.84013 268.579 8.86013 268.419 8.70014C268.259 8.54014 267.959 8.26013 267.519 7.86013C266.039 6.02013 264.179 4.66014 261.939 3.78013C259.739 2.90013 257.179 2.46013 254.259 2.46013C251.539 2.46013 248.859 2.96013 246.219 3.96013C243.619 4.92013 241.139 6.28013 238.779 8.04013C236.459 9.80013 234.319 11.9001 232.359 14.3401C230.439 16.7801 228.759 19.4601 227.319 22.3801C225.919 25.3001 224.839 28.4201 224.079 31.7401C223.319 35.0201 222.939 38.4201 222.939 41.9401C222.939 44.6601 223.279 47.1401 223.959 49.3801C224.639 51.6201 225.619 53.5601 226.899 55.2001C228.179 56.8001 229.739 58.0401 231.579 58.9201C233.419 59.7601 235.499 60.1801 237.819 60.1801C238.139 60.1801 238.359 60.2801 238.479 60.4801C238.599 60.6801 238.639 60.9001 238.599 61.1401C238.599 61.4201 238.519 61.6601 238.359 61.8601C238.199 62.0601 237.959 62.1601 237.639 62.1601ZM237.613 62.1601C237.333 62.1601 237.133 62.0601 237.013 61.8601C236.853 61.6601 236.793 61.4201 236.833 61.1401C236.833 60.9001 236.933 60.6801 237.133 60.4801C237.293 60.2801 237.513 60.1801 237.793 60.1801C241.273 60.1801 244.753 59.6001 248.233 58.4401C251.673 57.2401 255.053 55.6401 258.373 53.6401C261.693 51.6001 264.853 49.2401 267.853 46.5601C270.893 43.8801 273.733 41.0401 276.373 38.0401C279.013 35.0401 281.413 32.0001 283.573 28.9201C285.773 25.8001 287.633 22.7801 289.153 19.8601C290.713 16.9401 291.913 14.2601 292.753 11.8201C293.593 9.38014 294.013 7.30013 294.013 5.58013C294.013 5.22013 294.133 4.94013 294.373 4.74013C294.613 4.54013 294.873 4.44013 295.153 4.44013C295.473 4.44013 295.753 4.54013 295.993 4.74013C296.233 4.94013 296.353 5.22013 296.353 5.58013C296.353 7.14013 296.013 9.02014 295.333 11.2201C294.653 13.4201 293.653 15.8201 292.333 18.4201C291.013 21.0201 289.453 23.7401 287.653 26.5801C285.853 29.3801 283.813 32.2001 281.533 35.0401C279.293 37.8401 276.833 40.5801 274.153 43.2601C271.513 45.9001 268.733 48.3601 265.813 50.6401C262.933 52.9201 259.953 54.9201 256.873 56.6401C253.753 58.3601 250.593 59.7201 247.393 60.7201C244.153 61.6801 240.893 62.1601 237.613 62.1601ZM274.513 62.1601C272.633 62.1601 271.213 61.5801 270.253 60.4201C269.293 59.2201 268.813 57.5401 268.813 55.3801C268.853 53.2201 269.333 50.7201 270.253 47.8801L281.293 13.8601C282.853 9.06013 284.433 5.56013 286.033 3.36013C287.673 1.12013 289.473 0.000133514 291.433 0.000133514C292.593 0.000133514 293.533 0.240133 294.253 0.720131C294.973 1.20013 295.493 1.86013 295.813 2.70013C296.173 3.50013 296.353 4.42013 296.353 5.46013C296.353 5.82013 296.233 6.10013 295.993 6.30013C295.753 6.50013 295.473 6.60013 295.153 6.60013C294.873 6.60013 294.613 6.50013 294.373 6.30013C294.133 6.10013 294.013 5.82013 294.013 5.46013C294.013 4.74013 293.913 4.14013 293.713 3.66013C293.553 3.14013 293.273 2.76013 292.873 2.52013C292.513 2.24013 292.033 2.10014 291.433 2.10014C290.433 2.10014 289.473 2.56014 288.553 3.48014C287.673 4.40014 286.793 5.84013 285.913 7.80013C285.073 9.72013 284.133 12.1801 283.093 15.1801L272.413 48.2401C271.533 50.9201 271.053 53.1401 270.973 54.9001C270.933 56.6201 271.253 57.9201 271.933 58.8001C272.653 59.6401 273.733 60.0601 275.173 60.0601C275.533 60.0601 275.773 60.1801 275.893 60.4201C276.013 60.6201 276.033 60.8601 275.953 61.1401C275.873 61.3801 275.693 61.6001 275.413 61.8001C275.173 62.0401 274.873 62.1601 274.513 62.1601ZM274.546 62.1601C274.186 62.1601 273.926 62.0401 273.766 61.8001C273.606 61.6001 273.566 61.3801 273.646 61.1401C273.686 60.8601 273.846 60.6201 274.126 60.4201C274.406 60.1801 274.786 60.0601 275.266 60.0601C276.266 60.0601 277.446 59.6601 278.806 58.8601C280.126 58.0201 281.546 56.8401 283.066 55.3201C284.586 53.8001 286.106 51.9801 287.626 49.8601C289.186 47.7401 290.666 45.3801 292.066 42.7801C292.226 42.5001 292.426 42.3801 292.666 42.4201C292.906 42.4201 293.106 42.5201 293.266 42.7201C293.466 42.9201 293.506 43.1601 293.386 43.4401C292.026 46.1201 290.546 48.6001 288.946 50.8801C287.386 53.1601 285.786 55.1401 284.146 56.8201C282.466 58.5001 280.826 59.8201 279.226 60.7801C277.586 61.7001 276.026 62.1601 274.546 62.1601ZM296.086 62.1601C294.766 62.1601 293.586 61.8001 292.546 61.0801C291.546 60.3601 290.766 59.3401 290.206 58.0201C289.646 56.6601 289.366 55.0801 289.366 53.2801C289.366 51.5201 289.646 49.6001 290.206 47.5201C290.806 45.4401 291.646 43.3801 292.726 41.3401C293.846 39.2601 295.206 37.3601 296.806 35.6401C298.446 33.9201 300.306 32.5601 302.386 31.5601C304.466 30.5201 306.766 30.0001 309.286 30.0001C310.686 30.0001 312.146 30.2401 313.666 30.7201C315.186 31.1601 316.546 31.8201 317.746 32.7001L317.086 34.5601C315.446 33.5201 313.966 32.8601 312.646 32.5801C311.326 32.2601 310.086 32.1001 308.926 32.1001C306.846 32.1001 304.906 32.5601 303.106 33.4801C301.346 34.3601 299.746 35.5601 298.306 37.0801C296.906 38.6001 295.706 40.3001 294.706 42.1801C293.706 44.0201 292.946 45.9001 292.426 47.8201C291.906 49.7401 291.646 51.5601 291.646 53.2801C291.646 54.6001 291.826 55.7801 292.186 56.8201C292.546 57.8201 293.086 58.6201 293.806 59.2201C294.526 59.7801 295.406 60.0601 296.446 60.0601C298.126 60.0601 300.006 59.2201 302.086 57.5401C304.206 55.8201 306.446 53.2601 308.806 49.8601C311.166 46.4201 313.526 42.1201 315.886 36.9601L316.426 39.2401C313.946 44.5601 311.526 48.9201 309.166 52.3201C306.846 55.6801 304.586 58.1601 302.386 59.7601C300.226 61.3601 298.126 62.1601 296.086 62.1601ZM312.646 62.1601C311.966 62.1601 311.366 62.0201 310.846 61.7401C310.326 61.5001 309.926 61.1001 309.646 60.5401C309.366 59.9801 309.246 59.2601 309.286 58.3801C309.326 57.4601 309.546 56.3801 309.946 55.1401L317.686 31.1401C317.806 30.8201 317.966 30.6001 318.166 30.4801C318.406 30.3201 318.726 30.2401 319.126 30.2401C319.566 30.2401 319.846 30.3601 319.966 30.6001C320.126 30.8401 320.146 31.1201 320.026 31.4401L312.226 55.0801C311.666 56.8001 311.446 58.0601 311.566 58.8601C311.726 59.6601 312.326 60.0601 313.366 60.0601C313.686 60.0601 313.906 60.1801 314.026 60.4201C314.146 60.6201 314.166 60.8601 314.086 61.1401C314.046 61.3801 313.906 61.6001 313.666 61.8001C313.426 62.0401 313.086 62.1601 312.646 62.1601ZM312.632 62.1601C312.352 62.1601 312.172 62.0401 312.092 61.8001C311.972 61.6001 311.952 61.3801 312.032 61.1401C312.072 60.8601 312.212 60.6201 312.452 60.4201C312.692 60.1801 312.992 60.0601 313.352 60.0601C315.192 60.0601 317.192 59.3201 319.352 57.8401C321.472 56.3601 323.652 54.3201 325.892 51.7201C328.172 49.0801 330.412 46.0801 332.612 42.7201C334.852 39.3201 336.972 35.7001 338.972 31.8601C339.252 31.4201 339.512 31.2401 339.752 31.3201C340.032 31.3601 340.232 31.5601 340.352 31.9201C340.512 32.2801 340.472 32.7001 340.232 33.1801C338.152 37.1801 335.972 40.9401 333.692 44.4601C331.412 47.9401 329.092 51.0201 326.732 53.7001C324.412 56.3401 322.072 58.4201 319.712 59.9401C317.312 61.4201 314.952 62.1601 312.632 62.1601ZM345.572 62.1601C345.132 62.1601 344.652 62.1001 344.132 61.9801C343.612 61.9001 343.052 61.7601 342.452 61.5601C341.852 61.4001 341.212 61.1801 340.532 60.9001L342.272 59.4601C342.792 59.6601 343.272 59.8001 343.712 59.8801C344.152 59.9601 344.572 60.0201 344.972 60.0601C345.412 60.0601 345.832 60.0601 346.232 60.0601C346.592 60.0601 346.852 60.1801 347.012 60.4201C347.212 60.6201 347.272 60.8601 347.192 61.1401C347.152 61.3801 346.992 61.6001 346.712 61.8001C346.432 62.0401 346.052 62.1601 345.572 62.1601ZM336.332 62.2801C334.732 62.2801 333.152 62.0601 331.592 61.6201C330.072 61.2201 328.692 60.6401 327.452 59.8801C327.172 59.6801 327.012 59.4401 326.972 59.1601C326.972 58.8401 327.072 58.5801 327.272 58.3801C327.552 58.1001 327.792 57.9601 327.992 57.9601C328.192 57.9201 328.452 58.0001 328.772 58.2001C330.092 58.9201 331.372 59.4401 332.612 59.7601C333.852 60.0801 335.152 60.2401 336.512 60.2401C338.992 60.2401 340.892 59.5801 342.212 58.2601C343.572 56.9001 344.252 55.1001 344.252 52.8601C344.252 51.8601 344.112 50.8801 343.832 49.9201C343.592 48.9601 343.272 47.9801 342.872 46.9801C342.472 45.9801 342.032 44.9401 341.552 43.8601C341.112 42.7801 340.672 41.6601 340.232 40.5001C339.832 39.3001 339.492 38.0201 339.212 36.6601C338.972 35.3001 338.852 33.8401 338.852 32.2801C338.852 31.0001 339.152 30.1001 339.752 29.5801C340.352 29.0201 340.952 28.7401 341.552 28.7401C341.912 28.7401 342.172 28.8401 342.332 29.0401C342.492 29.2001 342.572 29.4201 342.572 29.7001C342.572 30.1001 342.392 30.6201 342.032 31.2601C341.712 31.8601 341.192 32.6001 340.472 33.4801C340.672 35.0401 340.952 36.4401 341.312 37.6801C341.672 38.9201 342.072 40.0601 342.512 41.1001C342.992 42.1001 343.472 43.0601 343.952 43.9801C344.432 44.8601 344.872 45.7601 345.272 46.6801C345.712 47.5601 346.052 48.5001 346.292 49.5001C346.532 50.5001 346.652 51.6201 346.652 52.8601C346.652 55.6601 345.732 57.9401 343.892 59.7001C342.092 61.4201 339.572 62.2801 336.332 62.2801ZM345.62 62.1601C345.34 62.1601 345.16 62.0401 345.08 61.8001C344.96 61.6001 344.94 61.3801 345.02 61.1401C345.06 60.8601 345.2 60.6201 345.44 60.4201C345.68 60.1801 345.98 60.0601 346.34 60.0601C348.18 60.0601 350.18 59.3201 352.34 57.8401C354.46 56.3601 356.64 54.3201 358.88 51.7201C361.16 49.0801 363.4 46.0801 365.6 42.7201C367.84 39.3201 369.96 35.7001 371.96 31.8601C372.24 31.4201 372.5 31.2401 372.74 31.3201C373.02 31.3601 373.22 31.5601 373.34 31.9201C373.5 32.2801 373.46 32.7001 373.22 33.1801C371.14 37.1801 368.96 40.9401 366.68 44.4601C364.4 47.9401 362.08 51.0201 359.72 53.7001C357.4 56.3401 355.06 58.4201 352.7 59.9401C350.3 61.4201 347.94 62.1601 345.62 62.1601ZM369.32 62.2801C367.72 62.2801 366.14 62.0601 364.58 61.6201C363.06 61.2201 361.68 60.6401 360.44 59.8801C360.16 59.6801 360 59.4401 359.96 59.1601C359.96 58.8401 360.06 58.5801 360.26 58.3801C360.54 58.1001 360.78 57.9601 360.98 57.9601C361.18 57.9201 361.44 58.0001 361.76 58.2001C363.08 58.9201 364.36 59.4401 365.6 59.7601C366.84 60.0801 368.14 60.2401 369.5 60.2401C371.98 60.2401 373.88 59.5801 375.2 58.2601C376.56 56.9001 377.24 55.1001 377.24 52.8601C377.24 51.8601 377.1 50.8801 376.82 49.9201C376.58 48.9601 376.26 47.9801 375.86 46.9801C375.46 45.9801 375.02 44.9401 374.54 43.8601C374.1 42.7801 373.66 41.6601 373.22 40.5001C372.82 39.3001 372.48 38.0201 372.2 36.6601C371.96 35.3001 371.84 33.8401 371.84 32.2801C371.84 31.0001 372.14 30.1001 372.74 29.5801C373.34 29.0201 373.94 28.7401 374.54 28.7401C374.9 28.7401 375.16 28.8401 375.32 29.0401C375.48 29.2001 375.56 29.4201 375.56 29.7001C375.56 30.1001 375.38 30.6201 375.02 31.2601C374.7 31.8601 374.18 32.6001 373.46 33.4801C373.66 35.0401 373.94 36.4401 374.3 37.6801C374.66 38.9201 375.06 40.0601 375.5 41.1001C375.98 42.1001 376.46 43.0601 376.94 43.9801C377.42 44.8601 377.86 45.7601 378.26 46.6801C378.7 47.5601 379.04 48.5001 379.28 49.5001C379.52 50.5001 379.64 51.6201 379.64 52.8601C379.64 55.6601 378.72 57.9401 376.88 59.7001C375.08 61.4201 372.56 62.2801 369.32 62.2801Z" fill="black"/>
</svg>
